<?xml version="1.0" encoding="utf-8"?>
<!-- Generator: Adobe Illustrator 19.0.0, SVG Export Plug-In . SVG Version: 6.00 Build 0)  -->
<svg version="1.1" id="landmarks-provinces" xmlns:svg="http://www.w3.org/2000/svg"
	 xmlns="http://www.w3.org/2000/svg" xmlns:xlink="http://www.w3.org/1999/xlink" x="0px" y="0px"
	 viewBox="347.3 -117.9 567.2 403.9" style="enable-background:new 347.3 -117.9 567.2 403.9;" xml:space="preserve">
<style type="text/css">
	.st0{fill:#DDDDDD;}
</style>
<path id="ca-ab" class="st0" d="M474.7,187.1c-23.7-6.2-21.1-5.3-22.5-8.4L451,176l1-4.9c1-5.1,1-6.5-0.4-9.1
	c-0.5-0.9-1.8-3.5-2.9-5.7c-1.1-2.2-2.5-5.3-3-6.9c-0.5-1.5-1.5-3.7-2.2-4.7c-0.7-1.1-1.4-2.7-1.6-3.5s-0.9-2.3-1.5-3
	c-0.7-0.8-1.3-1.7-1.3-1.9c0-0.3-0.4-1-0.9-1.8c-0.5-0.8-1.1-2.5-1.4-4.3c-0.3-1.9-0.8-3.6-1.5-4.5c-0.6-0.9-1.3-2.1-1.5-2.8
	c-0.3-0.7-1.2-1.6-2-2.2c-1.5-1-2.1-2.6-1.1-3.2c0.3-0.1,0.5-1.4,0.5-2.7c0-2.4,2.9-10.7,22.6-65l1.8-4.9l9.8,3.3
	c5.4,1.8,13.6,4.4,18.2,5.7c4.6,1.4,12.8,3.7,18.1,5.3c5.3,1.5,9.7,2.9,9.8,3c0.3,0.3-1.3,6.8-1.8,7.1c-0.3,0.2-1,0.5-1.6,0.6
	c-1.1,0.3-5.8,4.9-5.8,5.7c0,0.3,0.7,0.8,1.6,1.2c1.5,0.7,1.6,0.7,2.9-0.1c0.7-0.5,1.4-1.3,1.6-1.8c0.2-0.5,0.4-0.8,0.5-0.7
	c0.1,0.1-0.6,3.5-1.5,7.4c-2.3,9.4-4.7,19.6-8,33.5c-1.5,6.2-3.2,13.3-3.8,15.7c-2.9,12.3-5.6,23.2-7,29.2
	c-7.5,31.5-6.9,29-7.3,28.9C481.1,188.7,478.1,188,474.7,187.1z"/>
<g id="ca-bc">
	<path class="st0" d="M380.8,163.9c-2.8-1.8-7.1-7.4-7.1-9.3c0-1.1-0.3-1.4-1.3-1.8c-1.3-0.5-2.3-2.2-2.9-5c-0.1-0.7-0.7-2-1.3-2.9
		c-0.5-0.9-1.4-2.4-1.8-3.5c-0.4-1.1-1.6-3.3-2.6-5c-1.1-1.8-2-4.1-2.4-5.8c-0.3-1.5-0.8-3.4-1.2-4.2c-0.6-1.4-0.5-1.5,0.7-2.5
		c0.7-0.6,1.7-1.1,2.2-1.1c0.9,0,3.5,2.5,7.8,7.5c1.4,1.5,2.6,3,2.9,3.3s1.1,1.4,2,2.5c0.8,1.1,1.6,2.1,1.8,2.2c0.6,0.5,1.7,4.4,2,7
		c0.3,2.5,0.6,3.2,2.5,5.7c2.5,3.4,2.8,3.9,3.2,7.3c0.2,1.4,0.6,3.4,0.9,4.3c0.3,0.9,0.5,1.8,0.3,1.9
		C386,165.3,382.3,164.9,380.8,163.9z"/>
	<path class="st0" d="M450.9,180.6c-0.4-0.1-9.5-3-16.6-5.1c-2.4-0.8-28.3-10.4-38.9-14.6c-1.8-0.7-3.9-1.5-4.6-1.8
		c-1.7-0.6-2-1.1-2-3.1c0-1.1-0.3-1.9-1-2.4c-2.6-2.1-3.5-3.2-3.5-4c0-0.5-0.2-0.9-0.4-0.9c-1.1,0-2.6-2.4-2.9-4.4
		c-0.4-3.3-1.9-6.2-4.5-8.8c-2.3-2.4-2.4-2.4-2.1-4.5c0.2-1.7,0.1-2.1-0.4-2.1c-0.4,0-0.8-0.1-0.8-0.4c-0.1-0.2-1.1-0.9-2.3-1.6
		c-1.2-0.7-2.1-1.5-2.1-1.8s-0.1-0.9-0.2-1.4c-0.3-1.2-0.3-2-0.2-6.7c0.1-4,0.1-4.1,1.4-5.2c1.2-1,1.3-1.2,0.9-2.5
		c-0.3-0.8-0.5-2.2-0.5-3.1c0-1.3-0.4-2.4-1.8-4.3c-1.5-2.1-1.8-2.8-1.5-4c0.1-0.8,0.7-1.8,1.2-2.3c1-0.9,0.9-1.5-0.6-4.5
		c-0.8-1.5-0.9-2.6-0.9-7.5c0-5.5,0.1-5.8,1.1-6.9c0.6-0.6,2.2-1.5,3.5-2c3.2-1.2,5.7-3.5,5.7-5.1c0-1.8,1-3.8,2.6-5.6
		c1.2-1.4,1.4-1.8,1.4-4.2c0-2.5-0.1-2.8-1.3-3.9c-1.5-1.4-4.1-6.4-4.9-9.3c-0.4-1.7-0.3-2.6,0.7-6.9c1-4.4,1.1-5.3,0.7-7.5
		c-0.3-1.4-0.6-4.4-0.7-6.7c-0.1-2.3-0.3-4.6-0.4-5.1c-0.1-0.5-0.3-1.7-0.5-2.6c-0.1-1-0.8-4.2-1.6-7.3c-0.7-3-1.4-6-1.5-6.5
		c-0.1-0.6-0.8-1.2-1.8-1.7c-3.1-1.3-3.5-1.3-4.4,0.2c-0.6,1-1.5,1.6-3.5,2.3c-1.5,0.5-3.5,1.4-4.4,1.8c-1,0.5-1.8,0.8-1.8,0.8
		c-0.1,0,0.1-0.6,0.3-1.4c0.6-2.2,0.2-7.5-0.7-8.9c-0.9-1.4-0.8-5.5,0.1-5.3c0.3,0.1,4.8,2.9,9.9,6.2c14,9.2,29.3,18.5,36.7,22.4
		c3.7,1.9,6.8,3.6,7.1,3.8c1.2,0.9,14.9,7.8,19.9,10.1c3.2,1.4,10,4.3,15.3,6.3c5.2,2,9.7,3.8,9.9,4c0.2,0.2,0.1,0.8-0.1,1.4
		s-2.6,6.9-5.1,14.1c-2.6,7.2-5.5,15.1-6.4,17.7c-10.2,27.9-12.4,34.2-12.4,36.4c0,1.3-0.3,2.7-0.7,3.3c-1,1.4-0.4,3.3,1.2,4.3
		c2.1,1.3,4.7,6.3,5,9.4c0.2,1.7,0.7,3.2,1.5,4.5c0.7,1.1,1.3,2.2,1.3,2.4s0.5,1,1,1.6c0.6,0.6,1.3,2.1,1.6,3.2
		c0.3,1.2,0.8,2.2,1,2.4c0.6,0.3,2.4,4.1,2.8,5.7c0.2,0.7,1.7,4.2,3.5,7.7c1.8,3.7,3.2,7,3.2,7.7c0,0.8-0.3,3.2-0.8,5.5
		c-0.8,4.3-0.7,6.1,0.5,7.9C451.7,180.5,451.6,180.8,450.9,180.6z"/>
	<path class="st0" d="M349.5,97.2c-1.8-4.1-2.5-9.1-2.2-16.2c0.2-4.1,0.5-6.6,0.8-7c0.3-0.4,0.6-1,0.6-1.4c0-1.2,1.9-1.1,3.7,0.1
		c2.1,1.4,4.9,4.2,4.9,4.9c0,0.3-1.8,2.4-4,4.7c-4.6,4.8-4.7,5.1-2.9,11.7c0.6,2.2,1.1,4.3,1.1,4.7
		C351.6,100.3,350.5,99.5,349.5,97.2z"/>
</g>
<path id="ca-mb" class="st0" d="M560.4,71.2L560,74c-0.2,1.5-0.4,3.1-0.5,3.5c-0.1,0.4-0.3,1.8-0.4,3.1c-0.2,1.4-0.4,2.7-0.5,3.1
	c-0.1,0.4-0.5,3.2-0.9,6.4c-0.7,5.4-0.7,5.8,0,7c0.8,1.3,0.7,1.3-0.5,2.9c-0.7,0.9-1.5,1.9-1.8,2.3c-0.3,0.4-0.6,3.3-0.8,6.5
	c-0.2,3.2-0.4,6.5-0.5,7.5c-0.1,1-0.3,3.6-0.4,5.8c-0.1,2.2-0.4,5.2-0.5,6.6c-0.5,6.1-0.6,8.6-0.9,11.9c-0.1,1.9-0.3,4.5-0.5,5.8
	c-0.1,1.2-0.3,4.2-0.5,6.6c-0.1,2.4-0.3,5.2-0.4,6.2c-0.1,1-0.3,3.9-0.4,6.4c-0.2,2.5-0.4,5.4-0.5,6.2c-0.1,0.9-0.3,3.8-0.5,6.6
	c-0.2,2.8-0.4,5.4-0.4,5.8c-0.2,1.2-0.8,11.2-0.9,14.1l0,2.9l2.7,0.3c4.3,0.4,8.3,0.9,9.5,1.1c0.6,0.1,2.2,0.3,3.5,0.4
	c2.6,0.3,4,0.5,8,0.9c1.4,0.2,4.3,0.4,6.6,0.6c2.3,0.2,6.2,0.3,8.7,0.4l4.5,0.1l0.3-2.1c0.1-1.2,0.4-4.5,0.5-7.4
	c0.1-2.9,0.3-6.7,0.4-8.4c0.1-1.7,0.3-6.1,0.5-9.7c0.5-12.6,0.6-13.9,1.7-15.7c0.5-0.9,3.7-4.5,7-8c3.3-3.5,6.9-7.3,8-8.5
	c1.1-1.2,2.1-2.4,2.4-2.7c4.3-4.8,6.3-7.1,8.6-9.9c1.5-1.8,4.1-4.8,5.8-6.7c1.7-1.9,3.7-4.1,4.6-5.1c0.8-1,2.5-2.8,3.8-4.1
	c1.2-1.4,2.3-2.6,2.3-2.9c0-0.5-2.3-1.4-4.3-1.8c-3.1-0.5-3.9-0.8-4.4-1.5c-0.4-0.6-1.1-0.8-3.2-0.7c-1.5,0-2.8,0.3-3,0.5
	c-0.3,0.5-5.5,1.2-6.5,0.8c-0.5-0.2-0.5-0.5-0.3-1.2c0.3-1,0.3-1.5-1-7.4c-0.9-4.3-1.1-5.5-1.4-8c-0.3-2.8-1.5-3.6-6.1-4.6
	c-3-0.6-4-1-4.3-1.7c-0.5-1-0.5-4.5,0-9.2l0.4-3l-2.4-0.1c-1.3,0-2.5-0.1-2.7-0.1c-0.2,0-1.8-0.2-3.6-0.4c-1.8-0.2-3.6-0.4-4-0.5
	c-0.4-0.1-2-0.3-3.7-0.5c-1.7-0.2-3.5-0.4-4-0.5s-2.1-0.3-3.6-0.4c-1.5-0.1-4.3-0.5-6.2-0.7c-1.9-0.2-4.7-0.5-6.2-0.7
	c-1.5-0.1-3.6-0.4-4.7-0.5L560.4,71.2z M573,147.1c1.7,0,2.9,0.8,3.7,2.5c0.5,1,1.1,1.9,1.2,2c0.8,0.6,2.8,6,2.5,6.6
	c-0.2,0.4,0.6,2.8,1.4,4.4c0.3,0.5,0.5,2,0.5,3.3c-0.1,2.5,1.4,7.9,2.8,10.3c0.6,1,0.8,2.5,0.9,5.5c0.1,4.1,0.1,4.2-1,4.4
	c-0.6,0.1-1.4,0.6-1.9,1.2c-1,1.2-1.8,1.4-2.7,0.4c-0.8-0.8-0.5-3.9,0.4-5.3c0.3-0.5,0.7-1.5,0.8-2.1s0.5-1.5,0.8-1.9
	c0.9-1.1,0.9-2.1-0.1-2.7c-0.7-0.5-1-0.4-1.4,0.3c-0.6,1-1.7,1.2-1.7,0.4c0-0.3,0.2-1.2,0.5-1.9c1.2-3.3-0.8-6.1-3.5-5.2
	c-1.1,0.4-1.4,0.3-2.2-0.5c-0.5-0.5-1.2-1.9-1.5-3s-1.2-2.7-1.8-3.5c-0.8-1-1-1.8-0.9-2.8c0.2-1.2,0-1.4-2-2.5
	c-2.9-1.5-4-1.1-4.1,1.5c0,1-0.1,2.8-0.2,4c-0.4,6.1-0.4,6.1,1.4,7.5c3.9,3.1,4.2,3.5,4.8,6.2c0.3,1.5,0.6,3.4,0.6,4.3
	s0.5,2.6,1.2,3.9c1.5,2.9,1.5,5.2,0.1,5.6c-1.5,0.4-2,0.3-2.4-0.2c-0.3-0.5-1.5-6.1-2.4-10.9c-0.5-2.7-1.1-3.6-4.2-5.6
	c-2.5-1.6-3.6-2.8-3.5-3.7c0-0.3,0.1-1,0.1-1.4c0-0.5,0.3-1.1,0.7-1.4c0.4-0.4,0.6-1.6,0.6-3.5c0-2.9,0-2.9-1.7-3.9
	c-1.9-1.1-2.6-2.1-2.6-3.8c0-0.9,0.2-1.1,1.1-1.1c1.6,0,2.2-1.4,1.1-2.8c-0.5-0.6-0.9-1.3-0.9-1.6c0-0.6,2.1-1.5,3.3-1.4
	c1.1,0,3.4,2.2,3.4,3.2c0,0.4,0.5,1.2,1,1.7l1,1l0.6-1.6c1-2.7,2.8-5,4.2-5.3C571.8,147.2,572.5,147.1,573,147.1z"/>
<path id="ca-nb" class="st0" d="M815.2,226.1c-1-0.3-2.2-1.6-2.9-3.3c-0.3-0.7-1-1.3-1.5-1.5c-1.8-0.5-4.6-7.8-4.6-12.1
	c0-1.5-0.3-2.2-1-2.9c-1.7-1.6-4-2.8-5.5-2.8h-1.4l-0.2-2.8c-0.1-1.5-0.1-2.9,0-3.1c0.1-0.2,1.4-0.3,2.9-0.4c3.3,0,5.1-0.6,6.9-2.3
	c0.8-0.8,2.6-1.6,4.6-2.1c3-0.8,3.4-0.9,4.9-0.2c1.6,0.7,1.7,0.6,2.5-0.3c1.8-1.9,7-3.5,6.9-2.1c0,0.3-0.3,1-0.7,1.6
	c-1,1.6-0.8,5.4,0.2,6.7c0.5,0.6,1,1.7,1.2,2.5c0.2,0.9,1.1,2.2,2.4,3.4c2,1.9,2.2,2,4.7,2c1.5,0,2.8,0.1,3,0.3
	c0.1,0.1-0.7,1.3-1.9,2.5c-1.2,1.3-2.7,3.4-3.3,4.6c-1.6,3.3-7.1,8.9-8.8,8.9c-1,0-1.4,0.3-1.8,1.2
	C820.9,225.9,818,226.8,815.2,226.1z"/>
<g id="ca-nl">
	<path class="st0" d="M864.5,177.5c-1.2-1.5-1.2-3.4,0.1-5.2c1.4-1.9,1.5-4.1,0.3-4.5c-1.1-0.4-1.1-1.3,0-3.2
		c0.8-1.4,0.9-1.9,0.7-5.4c-0.5-6.2-0.3-13.4,0.4-20.6c0-0.5,0.3-2.5,0.4-4.4c0.4-4.1,1.2-5.6,4.4-8c1.7-1.3,2.2-1.5,2.8-1
		c1.7,1.4,2,3,1.8,8.3c-0.1,2.9-0.3,5.4-0.4,5.6c-0.1,0.2-0.4,1.6-0.5,3l-0.3,2.6l1.1-1.3c0.6-0.7,1.1-1.5,1.1-1.6
		c0-0.7,1.9-0.8,3.3-0.3c1.6,0.6,1.7,0.7,1.5,2.9l-0.1,1.4h2.2c1.2,0,2.3-0.2,2.5-0.4c0.1-0.2,1.2-0.6,2.3-1c1.2-0.3,3.1-1,4.3-1.6
		c2.2-1,4.2-1,6-0.1c1,0.5,1.4,2.9,0.7,4c-0.5,0.7-0.4,1,0.3,1.7c0.8,0.8,1.2,0.8,3.1,0.5c2.8-0.5,3.3-0.3,3.3,1.2
		c0,1.3-0.9,2.9-2.4,4.1c-0.5,0.4-0.6,0.8-0.3,0.8s0.5,0.7,0.5,1.5s0.1,1.8,0.3,2.2c0.3,0.8,1.1,1,1.1,0.2c0-0.8,2.2-3.5,2.9-3.5
		c0.3,0,0.9,0.8,1.2,1.8c0.6,2,1.2,2.2,3,0.8c0.7-0.5,1.4-0.8,1.6-0.6c0.2,0.2,0.4,1.7,0.4,3.3c0.1,1.6,0.1,3.7,0.2,4.6
		c0.1,2.4-1.7,5-3.5,5.1c-1.1,0.1-1.5-0.1-1.9-1c-0.6-1.4-1-1.4-1.7,0c-1.2,2.3-2.2,0.9-2.7-3.8c-0.4-3.4-0.9-4.8-1.8-4.8
		c-0.2,0-0.4,0.7-0.4,1.6c0,1.3-0.3,1.9-1.7,3.3c-1.6,1.5-1.8,2-2.2,4.9c-0.6,4.3-1.7,5.4-5.1,5.5c-3,0.1-3.2-0.6-0.9-2.8
		c1.3-1.2,1.5-1.8,1.5-3.2c0-1.6-0.1-1.7-1-1.2c-1.7,0.9-3.6,1.3-4.1,0.9c-0.5-0.5-1.3-0.1-5.7,2.6c-1.3,0.8-3,1.5-3.7,1.6
		c-0.7,0.1-1.9,0.3-2.7,0.5c-0.8,0.1-3.5,1.1-6,2c-2.5,1-4.7,1.9-5,2C865.6,178.6,865,178.2,864.5,177.5z"/>
	<path class="st0" d="M809.5,145.7c-0.1-0.1-0.9-0.2-1.8-0.4s-2.1-0.6-2.5-1c-0.7-0.6-1.4-0.7-3.4-0.5c-3.2,0.3-3.6,0.1-3.9-1.6
		c-0.5-2.8-0.6-3.2-0.6-3.7c0-0.3-0.3-0.8-0.7-1.2c-0.6-0.6-0.8-0.6-2.1,0.2c-0.8,0.5-1.8,0.9-2.3,0.9c-1.1,0-2.7-1.5-2-2
		c0.5-0.3,0.6-2.9,0.2-4.5c-0.2-0.6-1-1.2-2.1-1.7c-3.3-1.3-6.7-6.6-5.6-8.7c0.3-0.5,0.7-0.9,0.9-0.9c0.5,0,1.2-1.7,1.5-3.2
		c0.1-0.5,0.6-1.2,1.1-1.6c0.5-0.4,1.1-1.3,1.4-1.9c0.4-1.1,0.5-1.2,2.3-0.8c1,0.2,2.4,0.8,3,1.2c1.5,1.1,3.2,0.8,4.2-0.8
		c0.8-1.3,1-1.3,3.1-1c1.2,0.2,2.6,0.3,3,0.3c0.6,0,0.8,0.3,0.6,1.5c-0.1,0.8-0.3,1.6-0.3,1.6c-2,1.3-3.5,2.7-3.7,3.3
		c-0.1,0.4-0.8,1.2-1.6,1.6c-1.5,1-1.6,1.6-0.5,2.6c1.1,1,3.7,0.6,4.5-0.6c1-1.4,3.3-2.3,4.9-1.8c2.1,0.6,3.7-0.1,4.6-2.1
		c0.8-1.7,0.9-4,0.2-4.7c-0.2-0.2-0.8,0-1.3,0.5c-0.6,0.6-1.5,0.9-2.4,0.9c-3.3,0-3.6-0.9-1.6-4.7c0.7-1.4,1.3-2.9,1.3-3.5
		c0-1.3-1.5-4.7-2.4-5.5c-0.4-0.3-0.7-0.9-0.7-1.3c0-1.2-2.2-5.1-3.6-6.3c-1-0.8-1.5-1.8-1.7-3.1c-0.2-1-0.6-3.2-0.8-4.8
		c-0.3-1.6-0.5-4.2-0.5-5.8c0-3.3-0.8-5.1-2.5-5.5c-0.6-0.1-1.8-0.6-2.6-1.1c-1.6-1-1.9-2.3-0.8-3.9c0.5-0.7,0.5-1.3,0.3-2
		c-0.4-1.1-0.4-1.5,0.1-3.8c0.3-1.5,0.1-1.6-3.9-1.4c-1,0-1.6,0-1.5-0.2c0.1-0.1-0.1-1.7-0.5-3.4c-0.6-2.5-1-3.2-1.6-3.3
		c-0.5-0.1-1.1-0.5-1.3-0.9c-0.6-1-2.5-7.6-2.2-7.9c0.5-0.5,5.6,4.1,7.4,6.6c1,1.4,2.3,2.6,2.7,2.6c0.4,0,1.2,0.6,1.7,1.3
		c0.5,0.7,1.6,1.7,2.4,2.2c1,0.6,1.8,1.7,2.4,3.1c0.6,1.4,1.2,2.2,1.7,2.2c0.4,0,1.2,0.7,1.7,1.5c0.8,1.1,1.4,1.5,2.8,1.8
		c1.5,0.3,1.9,0.5,2.8,2.2c0.5,1,1.1,2.7,1.2,3.6c0.2,1.6,0.4,1.8,2.3,2.3c1.1,0.3,2.4,1,2.8,1.4c0.7,0.8,0.7,1,0.1,3
		c-0.5,1.8-0.5,2.3-0.1,3.3c0.3,0.6,0.7,1.6,0.8,2.2c0.2,1,0.9,1.3,5,2.8c2.6,0.9,5.1,1.6,5.6,1.6s1.5,0.8,2.5,1.8l1.7,1.8l3.9,0.2
		c2.2,0.1,4.7,0.5,5.6,0.8c1.7,0.7,2.8,0.4,4.1-0.9c0.4-0.4,1.2-0.4,3.8,0.3c1.8,0.5,3.3,1.1,3.5,1.3c0.6,0.9-0.2,2.5-1.4,3
		c-0.7,0.3-2.3,1.7-3.6,3.2c-1.3,1.5-3,3.3-3.7,4.1c-0.7,0.8-2.3,2.4-3.4,3.6c-2.1,2.2-3.1,4.9-2,5.3c1,0.4,5.5-4.4,5.8-6.1
		c0.2-1,1.3-2.6,3.7-5.1c3.1-3.3,3.6-3.6,5-3.6c1.4,0,1.8,0.3,2.7,1.5c0.8,1.2,1.2,1.4,2.1,1.2c2.1-0.6,4.3-0.4,5.3,0.4
		c0.6,0.5,2.3,1.5,3.7,2.3c1.5,0.8,2.7,1.5,2.8,1.5s-0.1,0.6-0.4,1.2c-0.8,1.6,0.1,4.3,2,6.2c1.4,1.4,3.3,4.6,3.3,5.6
		c0,0.7-3,5.3-4.5,6.9l-1.3,1.4l-1.8-2.3c-1-1.3-2-2.4-2.2-2.6c-0.2-0.2-1.1,0.1-2,0.5c-0.9,0.4-2.6,1-3.9,1.3
		c-1.3,0.3-3.8,1.1-5.5,1.8c-1.8,0.7-5.4,2.1-8.1,3.1s-5.8,2.2-7,2.7c-4.2,1.8-13.4,4.9-15.1,5.2c-1.4,0.3-2.2,0.1-4.2-0.9
		c-1.4-0.7-2.7-1.1-2.9-0.9c-0.3,0.2-0.5,1.1-0.5,2.1c-0.1,2.2-0.5,6.1-0.8,6.4C811.8,145.7,809.7,145.9,809.5,145.7z"/>
</g>
<g id="ca-ns">
	<path class="st0" d="M830.2,240.4c-2.6-0.6-3.8-2-4.9-5.7c-0.5-1.8-0.6-2.8-0.3-3.6c0.7-1.7,3.6-6,5.5-8.1c1-1,2-2.3,2.3-2.7
		c0.3-0.5,1.1-1,1.7-1.1c1.3-0.3,5.1-2.9,5.1-3.4c0-0.5-2,0.3-4.3,1.7c-4.1,2.4-3.5-1.5,1-6.6c2-2.2,2.4-2.5,3.8-2.5
		c4.2,0.1,8.9-0.6,10.5-1.7c1-0.7,1.8-1,2.3-0.8c0.4,0.2,1.6,0.3,2.8,0.4c2.3,0.1,4.2,1.1,4.9,2.7c0.5,1,0.3,1.3-2.3,4
		c-1.6,1.6-3.2,3.2-3.5,3.5c-1.6,1.7-5.5,4.6-6.4,4.8c-0.6,0.1-1.5,1.2-2.3,2.5c-1.2,2-1.4,2.2-2.7,2c-1.2-0.2-1.5,0-1.9,0.9
		c-0.3,0.6-0.5,1.3-0.5,1.5s-0.6,1.9-1.3,3.7c-1,2.4-2,3.9-4.2,6.2c-1.6,1.6-2.9,2.9-3,2.9C832.4,240.9,831.4,240.7,830.2,240.4z"/>
	<path class="st0" d="M860,206.8c-0.4-0.3-1.6-1.6-2.8-2.9c-1.6-1.7-2-2.5-1.7-2.9c0.3-0.3,1.1-2.4,1.8-4.6c1.5-4.6,3-7.6,3.6-7.6
		c0.8,0,1.8,2,1.8,3.5c0,2.5,0.4,3.5,1.7,3.8c1.5,0.4,3.6,2.4,3.6,3.5c0,0.5-0.6,1.8-1.4,3c-1,1.5-1.7,2.1-2.4,2.1
		c-0.6,0-1.4,0.5-2,1.3C861.2,207.5,861,207.6,860,206.8z"/>
</g>
<path class="st0" d="M436.1-101.9c-0.8,0-1.8,0.1-3.4,0.3c-2.4,0.3-4.6,0.6-4.9,0.8c-0.4,0.2-0.5,0.8-0.4,2.4
	c0.3,2.5-0.3,3.1-1.4,1.5c-0.4-0.6-0.9-1.1-1-1.1c-0.7,0-7.2,11.6-8.4,15.3c-0.8,2.2-1.7,4.4-2,5c-1,1.6-0.8,2,2.1,4
	c6.2,4.2,6.4,4.6,3.8,9.9c-0.9,1.8-1.7,4.1-1.8,5.2c-0.2,1.7-0.1,1.9,1.5,3.2c0.9,0.8,1.6,1.5,1.5,1.7c-0.1,0.2-0.3,1.5-0.3,2.9
	c-0.1,2.7-0.6,3.6-2.4,4.1c-1.3,0.3-1.9,1.4-1.9,3c0,0.6-0.2,1.1-0.4,1.1c-0.2,0-0.5,0.5-0.7,1.2c-0.2,0.9-0.1,1.4,0.6,2.1
	c0.6,0.7,0.9,1.6,0.9,2.9c0,1.2,0.4,2.9,1.1,4.1c0.7,1.5,1,2.6,0.8,3.6c-0.1,1,0.1,2,0.7,3.2c0.9,1.7,0.9,1.8,0.1,4.4
	c-1.1,3.5-2.1,9.3-2.4,13.1c-0.1,1.7-0.3,3.5-0.5,4c-0.2,0.6,0.1,1.3,0.7,2c1.2,1.4,1.9,3,2.6,6.2c0.7,2.8,1.5,4.7,2.8,6.1l0.9,1
	l-1,1c-0.6,0.7-1,1.6-1,2.7c0,0.9-0.2,2-0.5,2.5c-0.4,0.8-0.2,1,2.3,2.1c1.5,0.7,3.6,1.8,4.5,2.4c1.4,0.9,2,1.1,3.2,0.9
	c1.8-0.3,1.7-0.8,1.7,6.4l0,5.5l4.9,2c15.8,6.4,34.4,12.7,52.4,17.8c5.2,1.5,12.4,3.6,15.9,4.6c3.5,1.1,7,2.1,7.7,2.2
	c0.7,0.1,4.3,0.8,8,1.6c3.6,0.8,7.2,1.4,7.8,1.5c0.7,0.1,3.3,0.6,5.8,1.1c2.5,0.5,5.1,1,5.8,1.1c0.7,0.1,4.1,0.8,7.5,1.5
	c7,1.4,9.5,1.6,9.5,0.8c0-0.3,0.1-0.9,0.2-1.4c0.1-0.5,0.3-2.5,0.4-4.6c0.2-2.1,0.4-4.3,0.5-4.9c0.1-0.6,0.3-2.4,0.4-4
	c0.4-4.5,1.1-11.7,1.3-13.9c0.1-0.7,0.3-3.1,0.5-5.3c0.2-2.2,0.4-4.3,0.5-4.6c0.1-0.4,0.3-2.4,0.4-4.4c0.1-2.1,0.5-5.4,0.7-7.4
	c0.2-2,0.3-3.9,0.2-4.1c-0.1-0.2-3.1-1.9-6.5-3.7c-7.3-3.8-14.8-7.8-20.4-10.8l-3.9-2.1l-2.7-4.4l-2.7-4.4l-5-1.1l-5-1.1l-4.3-5.8
	c-2.4-3.2-6.1-8.3-8.3-11.3s-6.5-9-9.6-13.2c-3.1-4.2-5.9-8.1-6.3-8.7c-0.6-1-0.6-1.3,0.9-5.1c5.5-14.4,5.5-14.3,2.7-17.9
	c-0.8-1.1-1.5-2.1-1.5-2.4c0-0.2-0.2-0.4-0.5-0.4c-0.3,0-1-0.4-1.6-0.8c-0.6-0.5-2-0.9-3-1c-1.5-0.2-2,0-3.6,1.3c-1.6,1.3-2,1.4-3,1
	c-1.5-0.6-1.5-0.9,0.1-2.4c0.7-0.7,1.2-1.5,1-1.7c-0.2-0.3-0.3-1.5-0.3-2.8c0-3.8-0.6-3.8-4.5,0c-1.9,1.9-3.5,3.4-3.6,3.4
	c-0.3,0-1.7-1.4-1.7-1.9c0-0.2-0.1-2.9-0.1-6c-0.1-5.6-0.1-5.7-1.2-6.2c-1.6-0.7-2.3-0.6-3.6,0.4c-0.9,0.7-1.7,0.9-3.3,0.8
	c-1.4-0.1-2-0.3-1.7-0.6c0.2-0.3,0.5-1,0.6-1.7c0.2-1.1,0-1.4-1.8-2.3c-2.1-1-5.3-1.3-8-0.6c-0.6,0.1-3.2,0.4-5.8,0.5
	c-3.4,0.2-4.7,0.4-5,0.9c-0.2,0.4-1,0.6-1.7,0.6c-1.2,0-1.3-0.1-1.3-1.9C437.8-101.2,437.7-101.9,436.1-101.9z M472.7-40
	c11.5,0,12.4,0.2,12.4,2.1c0,0.4-0.9,1.6-2.1,2.5c-1.4,1.2-1.9,1.9-1.6,2.2c0.5,0.5,6.6,3,9.6,3.9c2.1,0.6,2.1,0.7,1.8,2.1
	c-0.3,1.5-1,2.5-1.6,2.5c-0.2,0-1.2,0.5-2.1,1.1l-1.7,1.1l-2.5-1.2c-1.4-0.7-2.9-1.4-3.4-1.6c-1.1-0.6-1.7,0.1-2.7,3
	c-0.9,2.8-1.1,2.9-4.5,4.1c-1.5,0.5-3,0.9-3.2,0.9c-0.8,0-0.5-1.3,0.8-2.8c2.6-3.1,2.5-3,1.1-3c-0.8,0-1.9,0.5-2.7,1.1
	c-2.2,1.8-3.8,2.1-5.8,1c-0.9-0.5-1.9-1.5-2.2-2.1c-0.5-1-0.3-1.3,2.6-4.1c1.7-1.6,4-3.4,5.1-3.9c1.1-0.5,2.1-1.3,2.2-1.7
	c0.3-1.3-1.4-2.6-3.5-2.7c-1,0-3-0.5-4.6-1c-2.3-0.8-2.9-1.2-3-2c-0.1-0.6,0.1-1.2,0.3-1.4C461.5-39.9,466.7-40,472.7-40z
	 M487.7,16.9c0.2,0,1,0.9,1.8,2c0.8,1.1,2.1,2.7,3,3.4c2.4,2.1,4.1,4.1,5.2,5.9c0.9,1.4,1.4,1.7,3.9,2.4c2.7,0.7,3.1,0.7,5.5,0
	c1.8-0.5,2.9-1.1,3.6-2c1.4-1.7,3-2.5,5.8-2.6c2.4-0.1,2.4-0.1,2.3,1.1c-0.1,1.8-1.9,3.8-3.8,4.3c-0.9,0.3-2.5,1.3-3.5,2.3
	c-1,1-3.2,2.4-4.8,3.1c-1.6,0.7-3.6,1.7-4.5,2.2c-1,0.5-2.1,0.8-2.8,0.7c-0.8-0.1-1.5,0.1-2.5,1c-0.8,0.7-2.2,1.5-3.1,1.9
	c-0.9,0.4-2.2,0.7-2.9,0.6c-8.2-0.7-8.9-1-12.8-4.6c-3.5-3.3-3.5-4.1,0.2-4.1c1.4,0,2.9,0.2,3.3,0.5c1,0.5,2.2,0,4.1-1.7
	c1-0.9,1.6-1.1,3-1c2,0.1,3.1-0.5,3.1-1.9c0-1.3-1.8-6.5-3.4-9.8C487.2,18.1,486.9,16.9,487.7,16.9z"/>
<path class="st0" d="M534.9-68c-3.2-0.9-8.1-2.4-11-3.3c-2.9-0.9-6.9-2-8.9-2.6c-3.3-0.9-3.4-1-2-1.3c0.9-0.1,3.7-0.2,6.4-0.1
	c4,0.1,5.2,0.4,6.9,1.2c2,1,7.4,2.6,7.8,2.3c0.1-0.1-1-1.3-2.5-2.7c-2.8-2.6-4.9-3.8-7-3.8c-1.6,0-8.5-1.8-11.4-2.9
	c-2-0.8-2.2-1-3-3.5c-0.5-1.4-0.8-2.9-0.8-3.1c0-0.5,2.1-1.2,8-2.8l2-0.6l-1.5-0.4c-0.9-0.2-2.1-0.4-2.8-0.5
	c-1.3-0.1-2.8-2.1-2.3-3.3c0.1-0.3,0-0.8-0.3-1c-0.3-0.2-0.9-0.9-1.4-1.6c-1-1.6-0.7-3.3,1.2-5.3c1.8-1.9,2.5-3,2.5-4.2
	c0-2.3,6.6-5.8,13.1-7.1c2.4-0.5,5.3-1,6.4-1.2c2-0.3,2.1-0.2,2.5,1.1c0.5,1.6,0.1,4.1-1.3,6.7c-0.5,1-0.8,1.9-0.7,2.1
	c0.1,0.1,1.2-0.5,2.3-1.4l2-1.6l2.8,1.6c1.5,0.9,3.2,2,3.8,2.5l1.1,0.9l-0.9,2.1l-0.9,2.1l1.8-0.4c1-0.2,1.9-0.6,2.1-0.7
	c0.2-0.2,0-1.2-0.4-2.2c-0.4-1.1-0.6-2-0.5-2c1.9-1.2,2.6-1.5,2.7-1.3c0.3,0.4-9.4,39.1-9.8,39.5C540.7-66.5,538-67.1,534.9-68z"/>
<path class="st0" d="M568.9-42.4c-2.2-0.5-5.4-2.4-7.8-4.5c-0.7-0.6-2.1-1.5-3.1-1.9c-1-0.4-1.8-1.1-1.8-1.4c0-0.3-0.1-0.9-0.1-1.2
	c-0.1-1-1.9-0.9-2.3,0.1c-0.4,1.3-2.7,2.3-5.7,2.6c-1.4,0.1-2.9,0.5-3.2,0.8c-1.3,1.3-3.7,1.6-10,1.4c-9.4-0.4-12.2-0.9-12.2-2.1
	c0-0.3-0.1-1.4-0.2-2.3c-0.1-1-0.3-2.9-0.4-4.4c-0.2-3-1-4.1-3.4-4.5c-2.6-0.5-8-4.2-8-5.6c0-0.2,0-0.5-0.1-0.7
	c0-0.2-0.4-1.9-0.9-3.9s-0.8-3.7-0.8-3.8c0-0.3,0.1-0.3,19.1,5.4c7.5,2.2,13.7,4,13.8,3.9c0.1-0.1,2.4-9,5.1-19.8
	c2.7-10.8,5-20,5.1-20.3s1,1.3,2,3.8c1.7,4.3,1.8,4.5,1.6,8.7c-0.2,5.1,0.3,6.4,1.8,4.9c0.8-0.8,0.9-1.4,0.8-4.1
	c-0.1-1.8-0.2-5.7-0.3-8.8l-0.2-5.5l1.4-1.5c1.3-1.4,1.5-1.4,3.1-1.1c1,0.2,2.2,0.9,2.8,1.6c1,1.2,1,1.2,0.4,0.1
	c-0.4-0.6-0.9-1.8-1.1-2.5c-0.5-1.9,0.9-3.5,3.5-4c2.4-0.4,4.1,0.4,5.9,2.8c1.7,2.2,1.2,4-1.8,7.8l-2.4,3l0.1,5.5
	c0.1,6.2,0.5,9.8,1.4,12.4c0.5,1.6,0.5,1.9-0.5,4.1c-0.8,1.7-1,2.8-0.8,4c0.4,2.4,3.2,6.1,7.2,9.5c4.7,3.9,6.3,6.9,5.4,9.7
	c-0.5,1.3-0.5,1.3-3,1.1c-1.4-0.1-2.7-0.5-2.9-0.7c-0.2-0.2-0.7-0.4-1-0.4c-1.2,0-1,1.4,0.5,3.8c2.4,3.8,1.9,6.2-1.6,7.9
	C572.7-41.9,571.1-41.8,568.9-42.4z"/>
<path class="st0" d="M692.1,158c-2.3-0.9-2.7-1.3-2.7-2.1c0-1.2,0.3-1.3,3.3-1.7c2-0.2,2.3-0.1,3.4,1.2c1.6,1.8,1.5,3.6-0.2,3.7
	C695.3,159,693.5,158.6,692.1,158z"/>
<path class="st0" d="M599.6,74.1c-0.1-0.1-1.8-0.3-3.7-0.5c-1.9-0.2-3.6-0.4-3.8-0.4s-1.8-0.3-3.8-0.5c-1.9-0.2-3.6-0.4-3.8-0.4
	s-1.5-0.3-3.1-0.4c-1.6-0.2-3.8-0.4-4.9-0.5c-4.1-0.5-5.7-0.6-10.6-1.1c-5.1-0.5-5.9-0.7-5.6-1.2c0.1-0.2,0.3-2.2,0.5-4.5
	s0.4-4.5,0.4-4.9s0.3-2.4,0.4-4.4c0.2-2.1,0.4-4.3,0.5-4.9c0.1-0.6,0.3-2.5,0.4-4.2c0.3-3.7,0.6-7.2,0.9-9.9c0.1-1.1,0.3-3,0.4-4.2
	c0.7-8,0.9-9.8,1.4-14.1c0.1-1.5,0.3-3.1,0.3-3.7c0.1-0.8-0.5-1.3-3.5-2.9c-4.5-2.4-12.7-6.7-19.2-10.2c-2.8-1.5-5.9-3.1-6.9-3.6
	c-1.7-0.9-2.6-2.1-6-7.6l-1.6-2.6l-5-1.1l-5.1-1.1L516-18c-1.4-1.8-6.5-8.9-11.5-15.7c-4.9-6.8-10.1-14-11.6-15.9
	c-1.4-1.9-2.6-3.7-2.6-4c0-0.4,5.7-16.2,6-16.5c0.5-0.6,4.8,3.2,6.6,5.9c1.2,1.8,4.4,4.6,6.5,5.5c0.9,0.4,1.4,0.4,2.1,0
	c0.8-0.4,1.2-0.3,2.9,1.1c1.1,0.9,2.3,2.1,2.8,2.8c1,1.5,2.7,5.3,2.7,6.2c0,1.1-1.1,1.8-3.5,2.1c-2.4,0.3-4.4,1.3-4.4,2.1
	c0,0.3,0.4,1.1,1,1.9c0.8,1.2,1.6,1.6,5.4,2.8c7,2.1,8.3,2.3,11.5,1.8c1.6-0.3,3.4-0.7,4-1c1.1-0.5,1.2-0.4,1.9,0.6
	c0.4,0.6,1.9,2.6,3.4,4.6c3.5,4.5,4.6,6.7,4.4,8.5c-0.1,1-0.1,1.2,0.3,0.7c0.3-0.4,0.4-2.4,0.2-5.2l-0.3-4.5l4.7-2.3
	c2.7-1.3,4.8-2.6,4.9-3.1c0.2-0.7,0.1-0.7-1.6,0c-1,0.4-2.9,1.1-4.1,1.4c-2.2,0.6-2.4,0.5-3.5-0.3c-3-2.2-0.5-6.4,4-6.7
	c0.9-0.1,2.7-0.4,4-0.9s2.8-0.7,3.5-0.6c1.5,0.2,2.7,1.8,2.8,3.8c0,0.8,0.4,2.1,0.8,2.9c1.1,2.1,4.5,5.3,5.7,5.4
	c0.6,0,1.2,0.1,1.4,0.1c0.3,0.1,0.7,0.1,1,0.2c0.3,0,1.3,1.3,2.3,2.9l1.8,2.8l2.7,0.3c1.5,0.1,4,0.3,5.6,0.3c1.6,0,4.3,0.4,6,0.9
	c1.7,0.5,3.1,0.9,3.1,0.9s0-0.7,0.1-1.6c0-0.9,0.4-2.4,0.8-3.3c0.4-1,0.7-2.2,0.7-2.9c0-1.1,0.1-1.2,2-0.9c2.5,0.4,5.3,1.3,8.3,2.8
	c1.3,0.6,2.4,1.2,2.5,1.3c0.1,0.1-1.5,6.1-2.4,8.9c-0.1,0.3,0.3,0.8,0.9,1c0.6,0.2,1.3,1.1,1.6,1.9l0.6,1.5l0.3-1.3
	c0.2-0.9,0.1-1.8-0.4-2.6c-0.4-0.8-0.7-2.5-0.7-4.3c0-3.2,0.4-4,2-3.5c1.6,0.4,4.7-1.2,6.1-3.1c1.1-1.5,1.4-2.2,1.4-4.3
	c0-1.9-0.2-2.7-0.9-3.3c-1-0.9-1.2-4.1-0.3-5c0.8-0.8-2-3.2-4.5-4c-1.5-0.5-2.2-1.1-3.4-3c-1.3-2.1-1.5-2.8-1.5-5
	c0-1.4,0.2-3,0.5-3.4c0.4-0.7,0.2-1.5-0.7-3.6l-1.2-2.7l0.9-2.5c0.7-2.1,1.2-2.6,2.7-3.5c1.7-0.9,1.8-1.1,1.4-2.1
	c-0.4-0.9-0.3-1.3,1-2.9c3.5-4.3,3.2-4,4.7-3.7c1,0.2,1.6,0.7,2,1.5c0.3,0.7,1.3,1.8,2.2,2.6c3,2.6,3.4,3.6,3.6,7.9
	c0.1,3.8,0.2,4,2.4,7.6c2.8,4.6,3.1,7.1,0.8,6.2c-0.9-0.3-1-0.3-0.8,1c0.1,0.7-0.1,2.1-0.4,3.1c-0.5,1.7-0.5,1.8,0.4,2.6
	c0.8,0.7,1.3,0.7,2.6,0.3c1.7-0.5,3.2-0.2,6.6,1.2c1.4,0.6,1.5,0.8,1,1.3c-0.3,0.3-1.5,0.7-2.6,0.9c-3.1,0.4-3.3,1.2-1.3,4.1
	c1.6,2.4,2,3.6,2.1,7.1c0.1,1.9,0.8,0.1,1.1-2.9c0.5-4.6,1.1-6,2.9-6.7l1.5-0.7l3,3.3c2.1,2.3,3.1,3.8,3.4,5.1
	c0.7,2.8,0.6,4.4-0.4,5.4c-0.5,0.5-0.9,1.4-0.9,2.1c0,1.3,0.8,4.1,1.3,4.5c0.1,0.1,1,1.3,1.7,2.5c0.8,1.3,1.6,2.3,1.8,2.3
	c0.7,0,2.3-1.5,2.7-2.4c0.2-0.5,0.5-2.2,0.6-3.6c0.1-1.4,0.5-3.2,0.9-3.9c0.3-0.7,1-2.7,1.5-4.4s1.5-4,2.2-5.1
	c1.6-2.3,1.7-3.3,0.4-4.7c-1.1-1.1-2.3-6.4-1.9-7.9c0.6-1.9,1.5-2.5,4-2.5c1.8,0,3,0.3,4.8,1.3c1.4,0.7,2.9,1.3,3.4,1.3
	s1.5,0.7,2.3,1.5c0.8,0.8,2.3,1.9,3.3,2.5c1.9,1,3.5,2.5,3.5,3.3c0,0.2-0.3,0.6-0.7,0.9c-0.7,0.5-0.7,0.6,0.2,1.8
	c0.5,0.7,1.1,2,1.2,2.9c0.3,1.5,0.2,1.6-1,2.1c-0.7,0.3-1.5,0.9-1.8,1.4c-0.3,0.5-0.9,0.9-1.4,0.9c-1.2,0-1.1,0.8,0.2,2.4
	c0.6,0.7,1.2,1.9,1.4,2.7c0.2,1,0.8,1.8,1.7,2.5c3.1,2.1,3.1,6.6,0,11.9c-3.7,6.3-4,6.6-5.9,6.4c-1-0.1-2.2-0.5-2.9-0.9l-1.2-0.8
	l0.7,1.6c0.8,1.8,0.3,2.6-1.3,2.1c-1.6-0.5-2.3-0.5-3,0.1c-0.6,0.5-0.9,0.5-2.2,0c-0.8-0.4-1.8-1.1-2.2-1.6c-0.6-0.8-1-0.9-2.4-0.6
	c-1,0.2-2.1,0.5-2.5,0.7c-0.7,0.4-0.6,0.6,0.8,1.9c1.5,1.4,1.6,1.6,1.3,3.4c-0.2,1.4-1,2.6-2.7,4.6c-1.3,1.5-2.5,3.3-2.6,3.9
	c-0.2,0.6-0.5,1.1-0.8,1.1c-0.3,0,0.1,0.5,0.8,1c1.1,0.9,1.2,1.3,1.1,2.8c-0.1,1-0.5,2.3-0.8,2.9s-1.1,1.7-1.6,2.4
	c-0.5,0.7-1.8,2.9-2.8,4.7c-2.2,3.9-3,4.3-7.3,4.3c-3.2,0-4,0.6-4.3,3.1c-0.1,1.5-0.2,1.5-2.1,1.5c-1.1,0-2.5-0.1-3.2-0.3
	c-1.8-0.4-1.9,0.3-0.2,1.5c0.8,0.5,1.5,1.1,1.6,1.1c0.5,0.4,0.5,3.9,0.1,5.2c-0.6,1.8-2.2,2.6-5.3,2.8c-3.5,0.1-3.3,0.1-2.6,1.2
	c0.6,1,0.6,1.1-1,2.5c-2.2,2.2-4.8,5.6-6,8c-0.6,1.1-1.4,2.4-2,2.9c-1.2,1.1-2.2,3-2.2,4c0,0.4-1,3-2.3,5.6
	c-1.9,4.1-2.3,5.2-2.2,7.2l0,2.4h-1.9C600.6,74.3,599.7,74.3,599.6,74.1z"/>
<path class="st0" d="M688.9,49.7c-2.4-1.5-2.3-5.8,0.2-8.4c1-1.1,2.1-1,3.5,0.2c1.4,1.2,0.7,6.4-1.1,8.1
	C690.3,50.6,690.3,50.6,688.9,49.7z"/>
<path class="st0" d="M666,44.8c-1-1.9,0.4-6.3,2.6-7.7c1.7-1.2,2.2-1.3,5.6-1.2c2.1,0,2.3,0.2,2.8,1.4c0.5,1.2,0.4,1.5-0.9,3.5
	c-1.8,2.9-4.5,4.6-7.4,4.8C666.8,45.7,666.4,45.6,666,44.8z"/>
<path class="st0" d="M656.1,35.1c-0.6-0.1-0.8-0.6-0.8-2.3c0-1.2-0.2-2.3-0.5-2.6c-0.3-0.3-1.6-0.5-3-0.6c-5.2-0.1-6-1.2-3.1-4.4
	c1.7-1.8,2-2.6,1.9-5.1c-0.3-8.7,0-11.5,1.7-18.2c0.5-2.1,0.7-2.3,2.1-2.6c1.4-0.3,1.7-0.1,2.5,1c0.5,0.7,1.4,2.1,1.8,3.1
	c0.7,1.6,1,1.9,2.1,1.9c0.9,0,2.6,0.9,5.1,2.6c2.1,1.4,5,3.5,6.5,4.5c1.5,1,2.8,2.2,2.8,2.5c0,0.4,0.5,1.5,1.1,2.4
	c0.6,1,1.1,2.1,1.1,2.5c0,0.7,0.3,0.8,2.3,0.5c2.1-0.2,2.5-0.1,4,1c1.4,1.1,1.6,1.5,1.5,2.8c-0.2,2.3-0.5,2.8-2.3,3.8
	c-1.6,1-1.7,1-3.6,0.1c-1.3-0.5-2.6-0.8-3.6-0.7c-1.3,0.2-1.8,0-2.6-0.8c-0.5-0.6-0.9-1.4-0.8-1.8c0.2-1.2-3.8-3.2-4.7-2.4
	c-0.4,0.3-0.7,1-0.7,1.6c0,1.6-0.8,3.3-2.1,4.6c-0.7,0.7-1.6,1.8-2.2,2.5c-1.4,1.8-3.1,3.7-3.5,3.7
	C657.9,35.2,656.8,35.2,656.1,35.1z"/>
<path class="st0" d="M598-34.6c-1.5-0.5-3.4-1.7-5.3-3.5c-0.7-0.7-1.5-1.2-1.7-1.2c-0.9,0-2.9-1.9-2.9-2.7c0-1.1,7-10.6,7.8-10.6
	c1.1,0,5.2,4.3,6.4,6.7c1.8,3.7,3,7.1,3,8.4c0,0.9-0.4,1.5-1.7,2.3C601.9-33.9,600.5-33.8,598-34.6z"/>
<path class="st0" d="M762.2,32.1c-0.1-0.1-2.9-0.3-6.2-0.4c-4.8-0.2-6.3-0.4-7-1c-0.5-0.4-1.5-1.3-2.3-1.9c-1.2-1-1.8-1.2-3.6-1.1
	c-2.4,0.1-3.9-0.3-8.5-2.4c-2.8-1.3-3.2-1.6-3.7-3.2c-0.5-1.5-0.5-1.8,0.2-2.1c0.8-0.5,1-1.3,0.3-1.3c-0.3,0-1.4-0.7-2.7-1.5
	c-1.2-0.8-2.8-1.6-3.5-1.8c-0.9-0.2-1.6-0.8-2-1.5c-1-1.9-3.2-3.3-5.7-3.5c-1.9-0.2-2.3-0.1-3.2,0.8c-0.7,0.7-1.5,1-2.9,1
	c-1.6,0-2.2,0.3-3.8,1.8l-1.9,1.8H702c-6.1,0-7.5-1.1-8-6.5c-0.2-1.9-0.1-2.2,1.1-3.4c1-1,1.4-1.7,1.4-3c0-1.1,0.3-1.8,0.8-2.1
	c0.4-0.2,3.1-0.4,6-0.5c4.8-0.1,5.4-0.2,6.6-1.1c2-1.5,4-2.5,5.2-2.5c0.8,0,0.9-0.2,0.7-1c-0.3-1.2-0.6-2.2-0.7-2.6
	c0-0.1-0.9-0.8-1.9-1.5c-1.7-1.1-1.8-1.3-1.6-2.9c0.1-1,0.5-2.3,0.9-3c0.4-0.7,1.7-3.3,2.9-5.7l2.3-4.5l-0.9-3.1
	c-0.8-3-3.4-7.1-5.6-8.9c-0.4-0.4-1.2-1.4-1.8-2.3c-0.6-1-2-2.2-3.2-2.9c-1.7-1-2.3-1.5-2.5-2.8c-0.3-1.4-0.5-1.5-1.7-1.4
	c-0.7,0.1-1.6,0.4-2,0.7s-1.5,1-2.5,1.5c-1.6,0.8-1.9,0.8-2.3,0.3c-0.8-0.9-0.1-2.5,1.5-3.9c1.4-1.2,1.4-1.2,0.5-1.9
	c-1.1-0.9-1.7-0.9-3.4,0c-1.7,0.9-2.6,0.6-2.6-1.1c0-0.9,0.3-1.4,0.9-1.7c0.8-0.4,0.8-0.5-1.2-2.5c-3.6-3.5-5.6-5.1-6.2-4.9
	c-0.3,0.1-0.5,0.9-0.5,1.7v1.5l-4.5,0.1c-2.5,0.1-5.9,0.1-7.5,0.1c-2.5-0.1-2.9,0.1-2.9,0.7c0,0.6-0.5,0.7-3.7,0.7
	c-2.1,0-5.9-0.2-8.4-0.4c-2.8-0.2-5.3-0.2-6.2,0.1c-2,0.6-3.4-0.4-4.2-2.6c-0.4-1.3-0.7-1.4-1.8-1.4c-5.2,0.4-5.5,0.4-6.8-0.6
	c-2.9-2.1-5.3-5.6-5.3-7.7c0-0.7,0.4-0.9,2-1.1c1.1-0.1,2.9-0.3,3.9-0.3c1.5,0,1.7-0.1,1.2-0.6c-1-0.9-3.4-1.6-5.5-1.6
	c-1.4,0-2-0.2-2.2-0.8c-0.8-1.9-1.4-5.6-1.3-7.5c0.5-9.1,0.7-10.1,2.6-15.7c2.8-8,4.8-11.8,7.3-13.2c4-2.4,10.4-1.7,11.1,1.1
	c0.3,1.1,0.1,1.5-1.2,2.9c-0.9,1-1.6,2.4-1.8,3.4c-0.2,0.9-0.6,2.1-1,2.7c-0.8,1.2-1.9,5.8-1.5,6.4c0.1,0.2,0.3,1.9,0.4,3.7
	c0.1,3.6,0.3,4.1,1.5,4.1c0.5,0,0.9-0.4,1.1-1.2c0.2-0.7,0.6-1.6,1-2c0.6-0.6,0.6-1,0.2-1.5c-1.1-1.6-1.6-3-1.6-5.1
	c0-1.6,0.2-2.3,0.9-2.9c0.5-0.4,1-1.1,1.2-1.5c0.2-0.4,0.5-0.8,0.8-0.8s0.5-0.4,0.5-0.9c0-1.6,3.4-6.4,5.2-7.4
	c2-1.1,6.2-1.9,7.5-1.4c0.8,0.3,1.5,1.4,4.2,6.4c1.7,3.1,2.9,6.6,2.7,7.5c-0.3,1.3,1.3,3.4,2.6,3.4c0.5,0,1.7-0.2,2.6-0.5
	c1.4-0.4,1.6-0.6,1.4-1.3c-0.5-1.5,2.2-3.7,5.3-4.4c2.5-0.5,2.8-0.5,4.2,0.4c0.8,0.5,2,0.9,2.6,0.9c1.4,0,3.3,1.6,3.8,3.1
	c0.4,1.5,1.5,2.6,2.5,2.6c0.6,0,0.9,0.5,1.1,1.8c0.2,1,0.5,1.8,0.7,1.8c0.2,0,1.5,1.1,2.9,2.4c2,2,2.5,2.3,2.7,1.6
	c0.1-0.4,0.5-1.4,0.9-2.2c0.7-1.6,1.1-1.6,5-0.3c1.6,0.6,2,1,2.8,2.9c0.5,1.3,1.4,2.5,2.2,2.9c0.7,0.4,1.5,1.2,1.7,1.7
	c0.9,1.7,2,2.1,3.3,1.1c1.4-1.1,2.5-0.9,5.1,1c1.6,1.2,1.9,1.5,1.6,2.6c-0.8,3.1-0.8,3.6-0.2,3.5c0.3-0.1,1-0.7,1.4-1.4
	c1.1-1.8,2.5-1.6,4.6,0.7c2,2.1,3,3.7,3,5c0.1,2.5,0.3,2.7,1.7,3.4c0.8,0.4,1.8,1.3,2.2,2.1l0.7,1.3l-2,1.2c-1.6,1-2.2,1.1-3,0.7
	c-1.4-0.6-1.7-0.2-0.8,1.1c0.7,1,0.6,2.9-0.1,4.6c-0.4,1,1.1,2.3,3.3,3c0.9,0.3,2.5,1,3.4,1.7c1,0.6,2.4,1.2,3.3,1.2
	c0.9,0,2,0.3,2.7,0.5c0.6,0.3,2.3,0.4,3.7,0.3l2.6-0.2l2.4,2.5c2.1,2.2,2.6,2.5,4.2,2.5c1,0,2,0.1,2.3,0.1c0.3,0,0.7,0.7,0.8,1.5
	c0.2,0.8,0.4,1.6,0.6,1.8c0.2,0.2,1.7-0.2,3.4-0.8l3.1-1.1l1.7,1c1.5,0.9,1.7,1.1,1.8,3.3c0.2,2.9-0.1,3.9-1.2,5.2
	c-0.8,1-0.8,1.1-0.2,1.9c0.6,0.7,0.6,1,0.3,1.9c-0.3,0.6-0.4,1.8-0.2,2.6c0.3,2-1.2,4.3-2.8,4.3c-1,0-1.1,0.1-0.8,1
	c0.5,1.5,1.9,4.2,2.4,4.5c0.9,0.6,0.4,1.5-1.4,2.4c-1.8,0.9-1.9,0.9-3.4,0.1c-0.9-0.5-2.5-1.1-3.7-1.4c-1.9-0.5-2.4-0.9-3.7-2.8
	c-1.7-2.5-4.8-5.5-5.7-5.5c-0.3,0-0.9-0.3-1.2-0.6c-1.8-1.8-4.8-2.8-4.8-1.7c0,0.2-0.5,0.6-1.2,0.9l-1.2,0.5l1.2,1.3
	c1.4,1.5,1.4,3.5,0,4.2c-0.7,0.3-0.8,0.7-0.6,1.4c0.2,0.5,0.3,0.7,0.4,0.5c0.1-0.5,3.2,1,3.8,1.8c0.3,0.4,1.4,1.7,2.3,2.8
	c1.7,1.9,2.3,2.2,7,3.4c1.4,0.4,1.9,0.8,2.1,1.6c0.1,0.6,0.7,1.3,1.2,1.6c0.5,0.3,1.4,1.3,2,2.2c0.6,1,2.5,3.2,4.2,4.9l3.1,3.2
	l-0.1,6.1c0,3.4-0.2,6.2-0.4,6.4c-0.5,0.3-8.5-2.3-12.8-4.1c-2.1-0.9-4.4-2.1-5.1-2.8c-1.3-1.1-2.5-1.3-5.1-1
	c-0.8,0.1-0.3,0.9,0.9,1.3c0.7,0.3,1.6,1.2,2,2c0.7,1.2,1.4,1.7,4.2,2.8c1.9,0.7,5.5,2.7,8.1,4.4l4.8,3.1l-0.1,2.6l-0.1,2.6
	l-2.5,0.1C763.5,32.2,762.3,32.1,762.2,32.1z"/>
<path class="st0" d="M697.9,30.4c-1.7-1.1-2.2-2.3-1.4-3.2c0.7-0.9,1.6-0.8,3.1,0.3c1.4,1,1.7,2.5,0.8,3.4
	C699.6,31.6,699.6,31.6,697.9,30.4z"/>
<path class="st0" d="M702.7,25.4c-0.8-0.1-1-0.4-0.9-1.4c0.1-0.9,0.4-1.2,1.3-1.3c1.5-0.2,3.2,1.2,2.8,2.2
	C705.6,25.7,704.8,25.8,702.7,25.4z"/>
<path class="st0" d="M695.6-23.8c-3-3-2-12.2,1.5-14.5c1.6-1,4-0.5,5.6,1.3c1.2,1.4,1.3,1.5,1.3,6.3c0,5.5-0.2,5.9-3.6,7.4
	C698.1-22.2,697-22.3,695.6-23.8z"/>
<path class="st0" d="M707.7-31.9c-1.3-0.6-2.4-2.3-2-3c0.5-0.9,4-0.6,4.7,0.3c0.9,1.1,0.7,1.8-0.7,2.5
	C709-31.6,708.3-31.6,707.7-31.9z"/>
<path class="st0" d="M681.3-43.6c-0.5-0.5-0.4-0.7,0.8-2c0.7-0.8,1.2-2.1,1.3-3.5c0.3-2.2,1.3-4.4,2-4.4c0.7,0,0.9,1.4,0.3,2.4
	c-0.3,0.5-0.5,1.6-0.4,2.4C685.5-46.3,682.4-42.4,681.3-43.6z"/>
<path class="st0" d="M590.9-75.1c-1.1-0.9-2.1-2.1-2.1-2.5c-0.4-4.8-1.1-6-5.1-8.7c-0.8-0.5-2-2.1-2.8-3.6c-1.4-2.6-1.4-2.7-0.8-4.6
	c0.3-1.1,1.1-2.4,1.7-2.8c1.1-0.8,1.1-0.8,3.4,1c2.3,1.7,2.4,1.8,3.1,1c0.4-0.4,1-1.6,1.2-2.5c0.4-1.4,0.3-1.8-0.4-2.6
	c-2.1-2.3-2.6-3.7-2.2-5.9c0.5-2.4,1.8-4.5,2.9-4.5c0.4,0,1.7,0.6,3,1.3c2,1.1,2.4,1.2,2.8,0.7c1.1-1.3,5.9-2.3,7-1.5
	c0.3,0.3,0.5,1.4,0.5,2.8c0,1.8-0.2,2.4-0.8,2.6c-0.7,0.3-0.7,0.3,0,0.9c1.1,0.8,1,1.3-1.2,3.8c-1.1,1.2-2,2.4-2,2.7
	s0.6,0.7,1.3,0.9c1,0.4,1.3,0.7,1.3,1.6c0,0.6,0.3,1.7,0.6,2.3c1.3,2.3,1.6,3.4,1.8,6.5c0.2,2.8,0.1,3.4-0.9,4.9
	c-1.2,1.8-3.6,3.6-4.9,3.6c-0.4,0-0.6,0.2-0.5,0.4c0.4,0.7-1.8,2.9-3.5,3.4C593.1-73.4,592.9-73.5,590.9-75.1z"/>
<path class="st0" d="M609.2-83.5c-1-0.8-1.2-1.3-1.2-2.9c0-1.1-0.2-2.5-0.5-3.1c-1-2.7-0.2-12.9,1.3-16.4c0.5-1.2,1-2.9,1.2-3.8
	c0.4-2.4,1.7-3.1,6.6-3.8c1.3-0.2,2.3,0,3.6,0.7c1,0.5,2.2,0.9,2.7,0.9c1.3,0,3.9,1.1,5.6,2.5c1.5,1.1,1.5,1.1,0.8,2.5
	c-0.4,0.8-1,1.7-1.3,2.1c-0.3,0.4-0.7,1.3-0.9,2c-0.1,0.7-0.9,2.3-1.7,3.5c-0.8,1.2-1.7,3.4-2,4.8c-0.3,1.4-0.8,2.6-1,2.7
	c-0.3,0.1-1.8,0.3-3.3,0.4c-1.6,0.1-3,0.4-3.2,0.6c-0.3,0.3-0.7,3.4-0.8,6.2c0,0.7-2.3,1.9-3.7,1.9C610.8-82.6,609.8-83,609.2-83.5z
	"/>
<path class="st0" d="M673.1-98.2c-2-3.3-5-9.7-4.8-10.3c0.4-1,9.3-0.9,11.2,0.1c2.5,1.4,5.7,4.7,7.2,7.5c0.9,1.6-0.4,2.4-3.7,2.3
	c-2.1-0.1-3.2,0.1-4.6,0.9C675.7-96.3,674.2-96.4,673.1-98.2z"/>
<path id="ca-on" class="st0" d="M691.3,284.8c0.5-0.9,1.1-1.3,2.3-1.5c0.9-0.2,1.9-0.5,2.3-0.7c0.8-0.5,1.2-3.6,0.6-4
	c-0.4-0.3-0.4-0.6-0.1-1.2c0.2-0.5,0.6-1.6,0.7-2.5c0.2-0.9,0.7-1.9,1.1-2.2c1.6-1.1,3-3.7,2.8-5.3c-0.1-0.8-0.2-3.1-0.2-5.1
	c-0.1-3.4,0-3.8,1.5-6.4l1.6-2.8l-0.8-1.8c-0.4-1-1.2-2.1-1.7-2.6c-0.9-0.8-1.3-2-0.6-2c0.2,0,1.5,1.2,2.9,2.6
	c2.3,2.4,4.7,4,7.1,4.6c2.4,0.7,3.8-3.4,2-6c-1.2-1.7-6-6.9-7.2-7.8c-0.5-0.3-2.2-0.8-3.8-1c-1.6-0.2-4-0.7-5.3-1
	c-1.7-0.5-4.3-0.7-8.9-0.7c-6.1,0-6.6-0.1-7.1-0.9c-0.4-0.5-1.7-1.4-3-2.1c-1.9-1-2.3-1.4-2.4-2.4c0-0.7-0.6-1.8-1.3-2.5
	c-1.1-1.1-1.2-1.4-0.5-1.6c1-0.4,0.9-1.3-0.2-2.9c-0.5-0.7-1.3-2.1-1.8-3.2c-0.8-1.7-1.1-2-2.6-2.2c-1.7-0.3-6.4-2.5-7.5-3.6
	c-0.3-0.3-0.7-1.4-0.7-2.3c-0.1-1-0.3-2.3-0.5-3l-0.3-1.3l-3.6,0.2c-3.3,0.2-3.8,0.1-6.1-1.1l-2.6-1.3l-1.8,1.2
	c-1.6,1-1.8,1.2-1.1,1.9c0.6,0.6,0.4,0.9-2.3,2.6c-1.6,1.1-3.7,2.7-4.6,3.6c-1.8,1.9-2,1.9-8.3,0.9c-1.8-0.3-4.7-0.6-6.5-0.6
	c-3-0.1-5.9-1.1-5.9-2.1c0-0.2-0.5-0.4-1.1-0.4c-0.7,0-1.8-0.6-2.8-1.5c-1.6-1.5-1.7-1.5-5.7-1.5c-2.9,0-4.2-0.2-4.7-0.6
	c-0.4-0.4-1.4-0.8-2.4-1c-2.4-0.4-2.7-0.8-3-3.9c-0.3-2.5-0.4-2.8-1.7-3.5c-1.4-0.7-1.4-0.8-1.4-3.3c0.1-2.8,0.6-14.7,0.8-19
	c0.1-1.5,0.3-5.8,0.5-9.7c0.4-8.8-0.4-7.4,10.1-18.4c2.2-2.3,5.3-5.7,6.9-7.5c1.6-1.8,3.1-3.5,3.3-3.8c0.3-0.3,2.8-3.3,5.8-6.7
	c2.9-3.4,6.3-7.3,7.5-8.6c6-6.6,8.6-9.6,9.4-10.6l0.9-1.1l1.5,0.8c1.8,1,4.8,3.8,4.8,4.5c0,0.3,0.7,1.1,1.4,1.9
	c1.1,1,2.1,1.5,4.1,1.9c1.8,0.4,3,0.9,4,1.8c1.3,1.2,2.4,1.6,4.4,1.7c0.5,0,2,1,3.3,2.2l2.4,2.1l8.3,0.3c7.2,0.3,8.5,0.4,10.1,1.2
	l1.8,0.9l-0.3,3.8c-0.2,2.1-0.5,4-0.7,4.2c-0.2,0.2,0,1,0.5,1.8c0.5,0.8,1,2.3,1.1,3.4c0.5,3.5,0.6,3.9,1,4.7
	c0.2,0.5,0.3,1.7,0.3,2.9c-0.1,1.6,0.1,2.4,1.2,4.1c1.7,2.7,7,9.1,7.5,9.1c1,0,3.8,3.6,4.6,6l0.8,2.5l2.7-0.2l2.7-0.2l0.3,2.3
	c0.5,3.6,0.6,5.2,0.9,7.8c0.1,1.4,0.3,2.9,0.4,3.5c0.1,0.6,0.3,2.3,0.5,3.8c0.1,1.5,0.3,3.1,0.4,3.8c0.2,1.4,0.6,5,0.9,7.7
	c0.1,1.2,0.3,2.9,0.4,3.8c0.7,5.3,1.1,9,1.3,11.2c0.1,1.4,0.9,3.9,1.6,5.6c1.1,2.5,1.7,3.3,3.9,4.8c2.9,2,6.8,3.4,10.9,3.9
	c1.8,0.2,3.3,0.7,4.7,1.6c1.1,0.7,2.4,1.3,2.9,1.3c0.5,0,1.4,0.8,2.1,1.7l1.2,1.7l3.8-0.2c3.3-0.2,4.2-0.4,6.6-1.7
	c2.8-1.5,5-2.2,5.1-1.6c0.1,0.7,0.3,1.8,0.6,2.7c0.2,0.8-0.1,1.3-1.4,2.4c-2.8,2.3-5.1,4.8-8.3,8.8c-1.7,2.1-3.3,3.9-3.5,3.9
	c-0.8,0.1-2.5,1.7-2.3,2.1c0.5,0.8-3,2.2-6,2.3c-5.3,0.2-12.9,3.3-14.5,6c-1.6,2.7-1.6,3.3,0.1,4c0.8,0.3,1.9,0.5,2.4,0.4
	c0.7-0.2,1,0.1,1.6,1.3c0.9,1.8,0.6,2.1-2.4,2.1c-1.8,0-6.6,1.8-7.9,3c-0.6,0.5-0.5,0.7,0.4,1.4l1.1,0.8l-1.2,0.3
	c-0.7,0.2-2.1,0.1-3.2-0.2c-4.2-1.1-5.2-0.6-10.4,4.9c-2.9,3-3.5,3.5-4.9,3.5c-0.9,0-2.2,0.1-3,0.2l-1.4,0.1L691.3,284.8z"/>
<path id="ca-pe" class="st0" d="M846.6,206.2c-0.1-0.1-1.9-0.3-3.9-0.4c-2-0.1-4.8-0.5-6.1-0.9c-3-0.9-3.6-1-4.4-1.1
	c-1.8-0.1-2-0.8-0.9-3.1c0.6-1.2,1.3-2.2,1.6-2.2c0.3,0,1.5,0.9,2.6,1.9c1.6,1.5,2.1,1.8,2.5,1.3c0.3-0.4,1.4-0.6,2.7-0.6
	c1.2,0,2.5-0.2,2.9-0.4c1.4-0.8,5.4-1.8,5.6-1.4c0.1,0.2-0.1,0.9-0.4,1.5c-0.3,0.6-0.7,2.1-0.7,3.2
	C847.9,205.8,847.2,206.8,846.6,206.2z"/>
<g id="ca-qc">
	<path class="st0" d="M757.3,238.9c-0.4-0.7-0.8-1.9-0.9-2.8c-0.2-1.5-0.3-1.5-2-1.7c-1.8-0.1-4.2,0.8-6.8,2.6
		c-0.9,0.6-2,0.8-4.5,0.8c-3.3,0-3.3,0-4.3-1.5c-0.6-0.8-1.4-1.5-1.9-1.5c-0.5,0-1.8-0.6-3.1-1.4c-1.6-1-3-1.4-4.7-1.6
		c-3.7-0.3-7.9-1.7-10.4-3.4c-1.9-1.3-2.5-2.1-3.6-4.5c-0.8-1.8-1.5-4.1-1.6-5.8c-0.2-1.6-0.4-3.5-0.5-4.2c-0.1-0.7-0.4-3.2-0.7-5.5
		c-0.3-2.3-0.6-4.9-0.7-5.8c-0.1-0.9-0.3-2.4-0.4-3.5c-0.1-1.1-0.8-7.2-1.5-13.5c-0.7-6.3-1.4-12-1.6-12.6c-0.2-1-0.1-1.2,1.1-1.4
		c1.3-0.3,1.4-0.4,1.1-1.6c-0.2-1.1,0-1.8,0.9-3.2c0.7-1,1.2-2.3,1.2-3c0-0.6-0.8-2.8-1.8-4.9c-1-2.1-2-4.5-2.3-5.5
		c-0.3-1-0.8-2.3-1.2-2.9c-0.5-0.7-0.7-1.8-0.6-3.2c0.1-2.3-1-4.8-2.6-5.7c-0.5-0.3-0.9-0.9-0.9-1.6c0-0.7-0.4-1.7-0.9-2.3
		c-0.5-0.6-0.9-1.3-0.9-1.5c0-0.7,2.1-2.6,4.6-4.1c1.2-0.8,2.8-2.1,3.6-3c0.8-0.9,2.3-2.6,3.4-3.8c1.3-1.4,2.5-3.5,3.6-6.1
		c1.5-3.6,1.6-4.3,1.5-7.7c-0.1-2.7-0.4-4.7-1.3-7.4c-0.7-2-1.3-4.1-1.5-4.8c-0.5-2-4.4-6.3-7.3-7.8c-3.4-1.8-6-4.4-6.2-6.2
		c-0.1-0.7,0.2-2.1,0.7-3c0.4-1,0.8-2,0.9-2.4c0.1-0.4,0.5-1,1-1.4c0.7-0.6,0.9-1.3,0.9-2.9c0-1.5,0.3-2.4,0.9-3
		c0.8-0.9,0.8-1.1,0.2-2.8c-0.3-1-0.7-2.3-0.8-2.9c-0.3-1.4-1.4-3.6-2.7-5.4c-0.9-1.2-1-1.8-1-6.3c0-3.6-0.2-5.2-0.6-5.8
		c-0.3-0.4-1.2-2.1-1.9-3.8l-1.3-3l1.1-2.3c1.1-2.2,1.2-2.3,3.2-2.6c3.3-0.5,6.1-0.3,8,0.3c2.5,0.9,6.1,1.2,7.5,0.7
		c0.7-0.3,2-1.2,3-2.2c1-1,2-1.7,2.2-1.7c0.8,0,9.3,4.5,12.1,6.4c2.2,1.4,2.6,2,2.6,2.9c0,0.6,0.3,1.6,0.7,2.2
		c0.7,1,1.2,1.2,5.3,1.7c2.5,0.3,5.5,0.9,6.7,1.2l2.1,0.7l-0.3,2.4c-0.3,2.4,0,3.9,2.1,9.6c0.3,0.7,0.5,1.9,0.4,2.5
		c0,0.8,0.4,1.6,1.1,2.3c0.6,0.6,1.5,2,2,3.1l0.9,2l2.2-0.3c2.1-0.3,2.3-0.2,4.5,1.7c1.3,1.1,2.9,2.1,3.6,2.3
		c0.7,0.2,1.2,0.5,1.2,0.7c0,0.8,1,0.3,2.8-1.5c1.4-1.4,2-2.3,2.3-3.7c0.2-1.3,0.6-2,1.3-2.3c0.6-0.3,1.2-1.2,1.6-2.4
		c0.7-2.2,0.6-6.8-0.1-8.1c-0.3-0.5-0.4-1.1-0.4-1.3s0.3-1.5,0.6-2.9c0.4-2.2,1.4-3.8,2.2-3.3c0.2,0.1,0.4,0.9,0.6,1.8
		c0.4,2.1,2.3,5.4,3.1,5.4c0.5,0,1.8,4.4,1.6,5.5c-0.3,1.2,0.1,1.4,2.6,1.2l2.5-0.2l-0.1,2.8c0,1.5-0.3,3.5-0.5,4.3
		c-0.3,1-0.3,1.8,0,2.3c0.5,1,2.9,2.5,4.5,2.9c1.5,0.4,1.6,0.8,1.9,6c0.1,2.3,0.5,5.2,0.9,6.4c0.3,1.2,0.7,2.9,0.9,3.8
		c0.2,1.1,0.7,1.9,1.6,2.6c1.3,1,3.5,4.9,3.5,6.3c0,0.4,0.4,1,0.8,1.4c0.5,0.4,1.2,1.5,1.6,2.5c0.8,1.6,0.7,1.8-0.2,3.8l-0.9,2.1
		l-2.3-0.3c-1.3-0.1-2.9-0.4-3.7-0.5c-1.2-0.3-1.5-0.1-2.4,1.3c-1.2,1.7-1.9,1.9-3.1,0.9c-0.4-0.4-2-1-3.5-1.3
		c-3-0.6-3.2-0.5-3.7,1.6c-0.2,0.7-0.8,1.4-1.4,1.7c-0.9,0.4-1.1,0.8-1.1,2c0,1.1-0.4,1.9-1.4,2.9c-1.2,1.3-1.3,1.6-1.1,3.2
		c0.1,1,0.5,2.3,0.9,3c1,1.9,3.6,4.6,5.5,5.5c1.9,1,2.2,2,1.4,4.5c-0.5,1.4-0.4,1.5,0.8,2.6c1.3,1.1,2.8,1.2,5.4,0.4
		c0.8-0.3,1-0.1,1.2,2c0.2,1.6,0.6,2.6,1.4,3.4c1,1,1.3,1.1,3.6,0.8c2-0.3,2.6-0.2,3.3,0.5c0.5,0.4,1.2,0.9,1.6,0.9
		c2.1,0.4,6.6,0.5,7.1,0.2c0.3-0.2,0.7-1.2,0.8-2.3c0.3-2.5,0.6-5.5,0.6-5.6c0-0.1,0.9,0.3,1.9,0.8c1.4,0.7,2.3,0.9,3.6,0.7
		c1.9-0.3,9-2.7,16.4-5.6c11.4-4.5,18.4-7,21-7.7c1.6-0.4,3.1-1,3.4-1.2c0.3-0.3,0.8-0.3,1-0.1c1,1.2,3.2,4.1,3.2,4.3
		c0,0.1-1.2,1.2-2.8,2.4c-4,3.1-6.5,5.8-6.7,7.7c-0.1,0.9-1.1,3.3-2.2,5.5s-2.2,4.5-2.4,5.1c-0.5,1.4-7.6,5.2-12.2,6.6
		c-1.7,0.5-5.5,1.6-8.4,2.5c-17.1,5-25.4,8.1-26.9,10.1c-0.5,0.6-1,2.1-1.2,3.3c-0.2,1.2-0.8,3.5-1.3,5.1c-0.8,2.6-1.1,3-2,3
		c-2.1,0-6.5,4.9-8,9.1c-0.5,1.2-1.4,3.2-2.2,4.4c-0.8,1.2-1.5,2.9-1.6,3.8c-0.5,3.7-7.3,14.7-10.8,17.5c-5,4-11.8,11.2-11.1,11.8
		c0.1,0.1,1.9-1.7,3.9-4c2.1-2.3,5.1-5.1,6.7-6.3c2.8-2.1,5.8-5.2,7.8-8.2c1.8-2.6,5-9,5-10c0-0.5,0.2-1.4,0.5-1.9
		c0.8-1.5,4.9-6.6,6.6-8.1c0.9-0.8,2.5-2.3,3.8-3.4c1.2-1.1,3.4-2.8,4.9-3.6c1.5-0.9,4.2-2.6,6-3.9c2.3-1.6,4.2-2.5,6.2-3
		c2.7-0.7,3-0.7,5.5,0.1c2.1,0.7,2.7,1.1,3.4,2.3c1.8,3.4,1.5,5.6-1.1,8.7c-2.5,3-3.4,3.6-6,3.8c-5.1,0.5-9.3,1.7-10.7,3
		c-1.8,1.7-3.3,2.2-6.8,2.3c-4.2,0.2-4.4,0.5-4.1,4.9l0.3,3.6l-1.7,0.3c-1,0.1-2.2,0.2-2.9,0.1c-0.9-0.2-1.4,0-1.9,0.8
		c-0.9,1.2-2.8,7.4-3.1,10.1c-0.1,1.1-0.5,3.3-0.7,4.9c-0.2,1.6-0.5,3.7-0.6,4.8c-0.3,3.4-1.7,6.3-3.4,7.6c-0.9,0.6-2.1,1.8-2.6,2.6
		c-0.5,0.8-1.4,1.5-1.9,1.6c-0.5,0.1-4.2,0.9-8.1,1.8c-3.9,0.9-8.2,1.6-9.5,1.6C758.3,240.1,758,240,757.3,238.9z"/>
	<path class="st0" d="M829.5,171.2c-0.6-0.1-1.6-0.5-2.2-1c-0.6-0.4-2.3-1-3.6-1.3c-3.2-0.7-3.8-1.8-1.8-3.4c1-0.8,1.8-1,4.1-1.1
		c6-0.1,8.2,0.1,12.3,1.5c4,1.4,4.1,1.4,4.1,2.8c0,1.7-0.2,1.8-5.1,2.2C831.9,171.4,830.7,171.4,829.5,171.2z"/>
</g>
<path id="ca-sk" class="st0" d="M545.7,200.6c-0.1-0.1-1.8-0.3-3.7-0.5s-4-0.4-4.6-0.5c-0.6-0.1-2.4-0.3-4-0.5s-3.4-0.4-4-0.4
	c-0.6-0.1-2.4-0.3-4-0.5c-1.6-0.2-7.8-1.4-13.7-2.7c-6-1.4-11.1-2.5-11.5-2.6c-2-0.4-3.1-0.7-5.8-1.3c-1.6-0.4-3.3-0.8-3.8-0.8
	s-2.4-0.5-4.3-1c-2.8-0.6-3.4-0.9-3.2-1.5c0.2-0.7,3.7-15,4-16.4c0.1-0.4,0.8-3.3,1.5-6.4s2.1-8.7,3-12.4c0.9-3.6,2.6-10.7,3.8-15.7
	c1.2-5,2.3-9.5,2.4-9.9c0.1-0.5,0.8-3.4,1.5-6.4c0.7-3,2.2-9.3,3.4-13.9c1.1-4.6,2.7-11.2,3.5-14.6c0.8-3.4,2.2-9.2,3.1-12.9
	l1.6-6.7l2.3,0.2c1.3,0.1,3.3,0.3,4.5,0.5c1.2,0.2,3.7,0.1,5.6-0.1c3.2-0.4,3.6-0.3,6.1,0.8c2.5,1.1,3.6,1.2,3.6,0.3
	c0-0.5-9.4-5.1-11.7-5.7c-1-0.3-2.2-0.5-2.8-0.5c-0.5,0-1.4-0.4-1.9-0.9c-1-1-2.3-1.1-3.6-0.4c-1,0.5-1,0.4-0.4-2.7
	c0.4-1.8,0.6-2.2,1.2-2c0.7,0.2,3.8,0.8,6.7,1.4c0.6,0.1,1.5,0.3,2,0.4c1.5,0.3,19.8,3.9,21,4.1c0.6,0.1,3.5,0.7,6.4,1.3
	c2.9,0.6,6.1,1.1,7.1,1.2c1.7,0.2,1.8,0.2,1.7,1.7c0,0.8-0.6,5.2-1.2,9.7c-0.6,4.5-1.3,9.2-1.4,10.4c-0.3,2.2-0.8,3.3-1.5,3.3
	c-0.7,0-3.3,2.9-3.9,4.3c-0.4,1-0.4,1.8-0.1,2.8c1,3.1,0.8,4.6-0.7,6.2c-1,1-1.3,1.6-1,2.1c0.3,0.5,0.6,0.4,1.8-0.6
	c0.8-0.6,1.7-1.2,2.1-1.2c0.7,0,0.7,1.4-0.1,10.2c-0.1,1.4-0.3,4.2-0.5,6.4c-0.1,2.2-0.3,4.9-0.4,6c-0.1,1.1-0.3,4-0.4,6.4
	c-0.1,2.4-0.3,5.1-0.4,6c-0.1,0.9-0.3,3.7-0.5,6.4c-0.2,2.7-0.4,5.4-0.4,6c-0.1,0.6-0.3,3.5-0.5,6.4c-0.2,2.9-0.3,5.6-0.4,6
	s-0.3,3.1-0.4,6.2s-0.4,5.8-0.5,6.2c-0.1,0.4-0.3,3.2-0.5,6.2c-0.2,3-0.4,5.9-0.5,6.3c-0.1,0.4-0.2,2.1-0.3,3.6
	C546.9,200.4,546.5,201.3,545.7,200.6z"/>
<path id="ca-yt" class="st0" d="M431,33.5c-0.5-0.3-2.3-1.2-4.2-2.1c-2.8-1.3-12.4-6.2-28.2-14.6c-5-2.7-23.4-14.1-36.9-23
	c-4.8-3.1-7-4.8-7-5.4c0-1.1,1.4-3.3,2.8-4.4c2.6-2,1.1-3.3-4-3.5c-1,0-1.4-0.3-1.6-1c-0.1-0.5-0.4-0.9-0.6-0.8
	c-0.8,0.2-2.3-0.6-2.6-1.5c-0.2-0.7,0.8-2.5,4.1-7.4c6.1-9,17.3-25.6,26-38.5c6.9-10.3,15.9-23.5,27.9-41.4l5.4-8l1.4,0.5
	c2.9,1,3.7,2,4.1,4.8c0.2,1.4,0.8,3.5,1.3,4.6c0.6,1.1,1.2,2.8,1.3,3.7c0.2,1.3,0.8,2.1,2.1,3.3c1.6,1.4,1.7,1.6,1.1,2.3
	c-0.9,1.1-5.4,8.4-6.4,10.5c-0.5,1-1.2,2.9-1.7,4.2c-0.4,1.3-1.2,3.3-1.8,4.4c-1.9,3.9-2,3.6,2.6,7.1c3.2,2.4,4.2,3.4,4.2,4.2
	c0,0.6-0.7,2.4-1.6,4.1c-1,2-1.6,3.9-1.8,5.5c-0.2,2.4-0.2,2.5,1.4,3.7c1.7,1.3,1.6,1,1.2,6.1c0,0.2-0.6,0.4-1.3,0.6
	c-1.4,0.3-2.7,1.9-2.7,3.3c0,0.5-0.4,1.6-0.9,2.4c-1,1.6-0.8,3.1,0.6,4.2c0.5,0.4,0.6,1.1,0.5,2.3c-0.2,1.3,0,2.1,0.8,3.1
	c0.7,1,1,2.1,1,3.9c0,1.4,0.4,3.1,0.8,4c0.8,1.4,0.8,1.6-0.1,4.6c-1.2,4-1.7,7.1-2,11.4c-0.1,1.9-0.5,4-0.8,4.8
	c-0.4,1.2-0.4,1.5,0.6,2.6c1.5,1.6,1.9,2.5,2.8,5.8c0.4,1.6,1.3,3.9,2,5.1c0.9,1.7,1.1,2.4,0.7,2.5c-0.3,0.1-0.7,1.2-0.8,2.3
	c-0.1,1.2-0.4,2.7-0.5,3.4c-0.4,1.5,0.2,2,3.8,3.7c1.4,0.6,3.2,1.6,4.1,2.3c1,0.6,2.2,1.2,2.9,1.2l1.2,0l-0.1,4.6
	c-0.1,2.5-0.2,4.7-0.3,4.7C431.9,34,431.4,33.8,431,33.5z"/>
</svg>
