<?xml version="1.0" encoding="UTF-8"?>
<svg width="105px" height="28px" viewBox="0 0 105 28" version="1.1" xmlns="http://www.w3.org/2000/svg" xmlns:xlink="http://www.w3.org/1999/xlink">
    <!-- Generator: Sketch 47.1 (45422) - http://www.bohemiancoding.com/sketch -->
    <title>Cara-logo-white</title>
    <desc>Created with Sketch.</desc>
    <defs>
        <polygon id="path-1" points="101.823439 27.9642553 0.0357894737 27.9642553 0.0357894737 0.194808511 50.929614 0.194808511 101.823439 0.194808511"></polygon>
    </defs>
    <g id="Symbols" stroke="none" stroke-width="1" fill="none" fill-rule="evenodd">
        <g id="MENU-main-site" transform="translate(-31.000000, -14.000000)">
            <g id="MENU" transform="translate(0.000000, -1.000000)">
                <g id="Cara-logo-white" transform="translate(31.000000, 15.000000)">
                    <path d="M40.4548458,16.5832792 L35.6059471,16.5832792 C36.5151982,14.8573283 37.5453744,13.3689472 38.0911894,12.6549396 C39.0605727,13.7266 39.9698238,15.5713358 40.4548458,16.5832792 Z M35,17 L41,17 C40.6973568,16.1665585 39.4246696,13.3098793 38.0303965,12 C37.6061674,12.5361547 36.1511013,14.5593924 35,17 L35,17 Z" id="Fill-1" fill="#FFFFFE"></path>
                    <path d="M83.6058804,16.5832792 C84.5150314,14.8573283 85.5457549,13.3689472 86.0307235,12.6549396 C87.0607863,13.7266 87.9699372,15.5713358 88.3941196,16.5832792 L83.6058804,16.5832792 Z M83,17 L89,17 C88.6967294,16.1665585 87.3640568,13.3098793 86.0307235,12 C85.6058804,12.5361547 84.1516353,14.5593924 83,17 L83,17 Z" id="Fill-2" fill="#FFFFFE"></path>
                    <g id="Group-6">
                        <mask id="mask-2" fill="white">
                            <use xlink:href="#path-1"></use>
                        </mask>
                        <g id="Clip-4"></g>
                        <path d="M83.3304211,15.6915745 L83.4395789,15.4729362 C84.6432982,12.7420426 86.3391228,10.5568511 86.3391228,10.5568511 L86.4488772,10.4478298 L86.5580351,10.5568511 C88.0904211,11.8680851 89.4581754,15.3639149 89.5124561,15.4729362 L89.6222105,15.6915745 L83.3304211,15.6915745 Z M67.6820702,12.5782128 C65.9313684,14.2713191 61.4994386,15.0362553 59.7487368,14.9266383 L59.5847018,14.9266383 L59.5847018,8.53548936 L59.7487368,8.53548936 C59.7487368,8.53548936 61.3354035,8.42646809 62.5934035,8.42646809 L62.7031579,8.42646809 C63.7971228,8.42646809 66.7521404,8.42646809 67.9558596,9.62808511 C68.2839298,9.95574468 68.5028421,10.3930213 68.5028421,10.9393191 C68.5028421,11.5398298 68.2290526,12.0861277 67.6820702,12.5782128 Z M34.4712281,15.6915745 L34.580386,15.4729362 C35.7841053,12.7420426 37.4799298,10.5568511 37.534807,10.5568511 L37.5896842,10.4478298 L37.6994386,10.5568511 C39.2312281,11.8680851 40.6538596,15.3639149 40.7087368,15.4729362 L40.7630175,15.6915745 L34.4712281,15.6915745 Z M98.9781754,22.1917447 C98.5403509,21.0449362 94.7651579,12.1957447 90.9350877,6.2412766 L82.4547719,6.2412766 L82.4547719,7.49770213 C82.7279649,7.49770213 83.1657895,7.55251064 83.3847018,7.93497872 C83.6584912,8.31685106 83.5487368,8.80893617 83.2206667,9.46425532 L82.8925965,10.0653617 C81.634,12.304766 78.6795789,17.6033191 76.7642456,22.1375319 C76.5453333,22.6838298 76.3812982,23.0114894 76.1081053,23.0662979 C75.889193,23.0662979 75.6702807,22.8476596 75.3964912,22.52 C74.7403509,21.591234 70.7462456,16.7841702 69.5974035,16.019234 L69.2687368,15.8554043 L69.6516842,15.8005957 C69.7065614,15.746383 75.4513684,14.3809362 75.4513684,11.2121702 C75.4513684,10.3382128 75.0684211,9.51906383 74.3574035,8.75412766 C72.6061053,7.00621277 69.5974035,6.2412766 67.9558596,6.2412766 L51.3775789,6.2412766 L51.3775789,7.33387234 C51.6513684,7.38868085 52.3075088,7.44289362 52.8002105,7.93497872 C53.2380351,8.37165957 53.4569474,8.97276596 53.4569474,9.68289362 L53.4569474,22.1375319 C53.4569474,22.6838298 53.2923158,23.1205106 53.0191228,23.3939574 C52.8002105,23.6125957 52.4715439,23.7764255 52.0885965,23.7764255 C51.2678246,23.7764255 50.7757193,22.9018723 50.4476491,22.3013617 C50.3927719,22.1917447 50.2287368,21.8640851 50.0098246,21.3725957 C48.860386,18.5320851 45.1949474,9.95574468 42.021614,6.2412766 L33.2126316,6.2412766 L33.2126316,7.49770213 C33.4864211,7.49770213 33.9242456,7.6067234 34.1974386,7.98919149 C34.4163509,8.31685106 34.3614737,8.86314894 34.0882807,9.46425532 C33.2126316,11.2669787 29.6563509,18.0405957 28.1794386,19.5156596 C28.014807,19.6794894 27.8507719,19.8433191 27.6867368,20.0619574 C26.3189825,21.481617 24.5134035,23.4481702 19.9723158,23.4481702 C17.0721754,23.4481702 14.3366667,22.3561702 12.4762105,20.4438298 C10.6163509,18.5868936 9.63154386,16.0740426 9.63154386,13.0697021 C9.63154386,6.45991489 14.0085965,2.96408511 18.3307719,2.96408511 C21.0662807,2.96408511 22.6529474,4.16570213 23.4188421,4.87582979 C24.1853333,5.69497872 24.6774386,6.62374468 24.7323158,7.38868085 L29.4374386,7.38868085 L29.4374386,3.07310638 C28.8904561,2.6906383 24.3493684,-0.14987234 18.4399298,-0.14987234 C13.9537193,-0.14987234 7.71621053,1.54323404 3.94101754,5.36731915 C1.69761404,7.6067234 0.603649123,10.2834043 0.658526316,13.2883404 C0.713403509,22.1375319 9.63154386,26.2344681 17.8929474,26.3434894 C21.4492281,26.3982979 24.4036491,25.7971915 26.9208421,24.4865532 C29.4923158,23.1753191 31.516807,21.1539574 33.1577544,18.3140426 L33.2126316,18.259234 L41.9667368,18.259234 L42.021614,18.3140426 C42.021614,18.3682553 43.0064211,19.8975319 43.4442456,22.1917447 C43.7174386,23.7764255 42.8966667,24.0492766 42.1856491,24.2679149 L42.1856491,25.3057021 L61.882386,25.3057021 L61.882386,24.2131064 C61.3354035,24.1582979 59.5847018,23.7764255 59.5847018,21.591234 L59.5847018,17.4942979 L59.6938596,17.4942979 L63.0861053,16.8931915 L63.1958596,16.8931915 L63.2501404,16.948 C63.3050175,17.0028085 66.642386,20.9353191 67.5729123,22.0827234 C68.0107368,22.5742128 67.9558596,23.0114894 67.7912281,23.2843404 C67.5729123,23.7764255 66.9704561,24.1582979 66.6972632,24.2679149 L66.6972632,25.3057021 L82.0718246,25.3057021 L82.0718246,24.1582979 C81.907193,24.1040851 81.5791228,24.0492766 81.1961754,23.8854468 C80.9772632,23.7764255 80.1564912,23.2843404 80.649193,21.7550638 C81.1961754,20.2257872 81.5791228,19.2970213 82.1267018,18.3140426 L82.1267018,18.259234 L90.880807,18.259234 L90.9350877,18.3140426 C90.9899649,18.3682553 92.0839298,20.4438298 92.3028421,22.410383 C92.3577193,23.0114894 92.1936842,23.5029787 91.9198947,23.831234 C91.6467018,24.1040851 91.2637544,24.2131064 91.0448421,24.2679149 L91.0448421,25.3057021 L101.166702,25.3057021 L101.166702,24.2131064 C101.002667,24.2131064 100.783754,24.1040851 100.509965,23.9944681 C100.07214,23.7764255 99.4708772,23.5029787 98.9781754,22.1917447 L98.9781754,22.1917447 Z" id="Fill-3" fill="#FFFFFE" mask="url(#mask-2)"></path>
                        <path d="M101.440491,26.5791489 L90.7710526,26.5791489 L90.7710526,24.9944681 L90.9350877,24.9944681 C91.0448421,24.9944681 91.4277895,24.9402553 91.7009825,24.6125957 C91.9747719,24.3391489 92.0296491,23.9566809 92.0296491,23.4651915 C91.8107368,21.7172766 90.9350877,19.9145532 90.7161754,19.5320851 L82.2907368,19.5320851 C81.7980351,20.4608511 81.4150877,21.3348085 80.9229825,22.8098723 C80.5400351,24.1205106 81.0870175,24.5029787 81.3602105,24.6125957 C81.7980351,24.831234 82.2358596,24.8854468 82.2358596,24.8854468 L82.3450175,24.9402553 L82.3450175,26.5791489 L66.369193,26.5791489 L66.369193,24.9944681 L66.5332281,24.9944681 C66.642386,24.9944681 67.354,24.6668085 67.5729123,24.1753191 C67.6820702,23.9018723 67.627193,23.5742128 67.354,23.2465532 C66.4783509,22.208766 63.5239298,18.7129362 63.0861053,18.2208511 L59.8578947,18.7671489 L59.8578947,22.591234 C59.8578947,24.8854468 61.9372632,24.9402553 61.9921404,24.9402553 L62.1561754,24.9402553 L62.1561754,26.5791489 L41.9124561,26.5791489 L41.9124561,24.9944681 L42.021614,24.9944681 C42.7326316,24.831234 43.3893684,24.6668085 43.1704561,23.2465532 C42.7875088,21.2257872 41.9667368,19.8055319 41.8027018,19.5320851 L33.3766667,19.5320851 C30.1484561,25.0492766 25.060386,27.7259574 17.8929474,27.6169362 C13.5707719,27.5621277 9.35775439,26.4147234 6.29357895,24.5029787 C2.46350877,22.0997447 0.384736842,18.6033191 0.329859649,14.2883404 C0.329859649,11.2291915 1.47929825,8.49770213 3.72210526,6.20348936 C7.60705263,2.32519149 13.8988421,0.576680851 18.4399298,0.576680851 C24.8414737,0.576680851 29.6563509,3.85446809 29.6563509,3.9092766 L29.7112281,3.9092766 L29.7112281,8.66153191 L24.4585263,8.66153191 L24.4585263,8.55251064 C24.4585263,7.78757447 23.9664211,6.85880851 23.1999298,6.09446809 C22.4889123,5.38434043 20.9571228,4.23693617 18.3307719,4.23693617 C16.2514035,4.23693617 14.1726316,5.11089362 12.6402456,6.64076596 C10.8352632,8.44289362 9.90473684,11.0105532 9.90473684,14.0697021 C9.90473684,16.9644255 10.8352632,19.4772766 12.6402456,21.28 C14.5007018,23.0827234 17.1270526,24.1205106 19.9723158,24.1205106 C24.4036491,24.1205106 26.1549474,22.2635745 27.4678246,20.8433191 C27.6318596,20.6794894 27.7958947,20.4608511 27.9605263,20.2970213 C29.4374386,18.876766 32.9394386,12.1579574 33.8144912,10.355234 C34.0882807,9.80893617 34.1431579,9.37165957 33.9785263,9.15302128 C33.7053333,8.77055319 33.1034737,8.77055319 33.1034737,8.77055319 L32.9394386,8.77055319 L32.9394386,6.96842553 L42.1307719,6.96842553 L42.1856491,7.0226383 C45.4138596,10.7371064 49.0798947,19.4230638 50.283614,22.2635745 C50.5019298,22.7002553 50.6665614,23.0827234 50.7208421,23.1917447 C51.1586667,24.0662979 51.5964912,24.4481702 52.0885965,24.4481702 C52.8002105,24.4481702 53.1831579,24.0114894 53.1831579,23.1375319 L53.1831579,10.6828936 C53.1831579,10.0275745 52.9642456,9.53548936 52.6361754,9.15302128 C52.0337193,8.6067234 51.2678246,8.6067234 51.2135439,8.6067234 L51.1037895,8.6067234 L51.1037895,6.96842553 L67.9558596,6.96842553 C69.5974035,6.96842553 72.7707368,7.78757447 74.5214386,9.53548936 C75.3422105,10.355234 75.7251579,11.2291915 75.7251579,12.2121702 C75.7251579,15.2165106 71.1840702,16.6373617 69.9803509,16.9644255 C71.4572632,18.1666383 75.1232982,22.6460426 75.6154035,23.3561702 C75.889193,23.6838298 75.9983509,23.7928511 76.0532281,23.7928511 C76.2172632,23.7380426 76.3812982,23.2465532 76.4910526,22.9737021 C78.4606667,18.4942979 81.3602105,13.1957447 82.618807,10.9015319 L82.9474737,10.355234 C83.2755439,9.80893617 83.3304211,9.37165957 83.1657895,9.09880851 C82.9474737,8.71634043 82.3450175,8.77055319 82.3450175,8.77055319 L82.1809825,8.77055319 L82.1809825,6.96842553 L91.0991228,6.96842553 L91.154,7.0226383 C95.0389474,12.9771064 98.8141404,21.9353191 99.2513684,23.0827234 C99.7440702,24.2843404 100.236772,24.5577872 100.619719,24.721617 C101.002667,24.8854468 101.330737,24.9944681 101.330737,24.9944681 L101.440491,24.9944681 L101.440491,26.5791489 Z M101.440491,24.6668085 C101.440491,24.6668085 101.111825,24.5577872 100.783754,24.3939574 C100.455088,24.2301277 100.01786,24.0114894 99.5800351,22.9737021 C99.1422105,21.8262979 95.3121404,12.8132766 91.4277895,6.85880851 L91.2637544,6.64076596 L81.7980351,6.64076596 L81.7980351,9.15302128 L82.3450175,9.09880851 C82.5096491,9.09880851 82.7828421,9.15302128 82.8925965,9.2626383 C82.9474737,9.37165957 82.8925965,9.69931915 82.618807,10.1914043 L82.3450175,10.7371064 C81.0870175,13.0319149 78.1325965,18.3304681 76.2172632,22.8640851 C76.162386,22.9188936 76.1081053,23.1375319 75.9983509,23.2465532 C75.9983509,23.2465532 75.9440702,23.1917447 75.889193,23.1375319 C75.6154035,22.7550638 72.4969474,18.8219574 70.6913684,17.1288511 C72.4420702,16.5825532 76.1081053,15.0526809 76.1081053,12.2121702 C76.1081053,11.174383 75.6702807,10.1914043 74.7946316,9.31685106 C73.098807,7.62374468 69.9803509,6.64076596 67.9558596,6.64076596 L50.7208421,6.64076596 L50.7208421,8.98919149 L51.2678246,8.98919149 C51.2678246,8.98919149 51.9245614,8.98919149 52.362386,9.42646809 C52.6904561,9.69931915 52.8002105,10.1365957 52.8002105,10.6828936 L52.8002105,23.1375319 C52.8002105,23.7928511 52.5812982,24.1205106 52.0885965,24.1205106 C51.7605263,24.1205106 51.3775789,23.7380426 50.9946316,23.0279149 C50.9946316,22.9188936 50.83,22.5364255 50.6116842,22.0997447 C49.4079649,19.259234 45.7419298,10.5738723 42.4594386,6.80459574 L42.2954035,6.64076596 L32.6107719,6.64076596 L32.6107719,9.15302128 L33.1034737,9.09880851 C33.2126316,9.09880851 33.5407018,9.15302128 33.6504561,9.31685106 C33.759614,9.48068085 33.7053333,9.80893617 33.4864211,10.1914043 C32.3918596,12.485617 29.0544912,18.7671489 27.741614,20.078383 C27.5769825,20.2422128 27.4135439,20.4060426 27.1940351,20.6246809 C25.8811579,22.0449362 24.239614,23.7928511 19.9723158,23.7928511 C17.236807,23.7928511 14.6647368,22.7550638 12.9140351,21.0071489 C11.1633333,19.259234 10.2334035,16.9102128 10.2334035,14.0697021 C10.2334035,11.1201702 11.1633333,8.6067234 12.9140351,6.85880851 C14.3366667,5.43855319 16.3611579,4.56459574 18.3307719,4.56459574 C20.8473684,4.56459574 22.3248772,5.712 22.9267368,6.36731915 C23.8017895,7.18706383 24.0755789,8.06102128 24.0755789,8.55251064 L24.0755789,9.044 L30.0941754,9.044 L30.0941754,3.74544681 L29.8752632,3.58161702 C29.7112281,3.472 24.9512281,0.194808511 18.4399298,0.194808511 C13.8439649,0.194808511 7.44301754,1.99753191 3.50319298,5.9306383 C1.15063158,8.27906383 -0.0530877193,11.1201702 0.00178947368,14.2883404 C0.0566666667,18.7129362 2.1354386,22.3725957 6.07466667,24.831234 C9.24859649,26.7971915 13.5158947,27.9445957 17.8929474,27.9994043 C25.1152632,28.053617 30.2582105,25.4317447 33.5407018,19.8597447 L41.5837895,19.8597447 C41.8575789,20.3518298 42.5137193,21.6082553 42.7875088,23.3561702 C43.0064211,24.3939574 42.6783509,24.4481702 41.9667368,24.6668085 L41.5837895,24.721617 L41.5837895,26.9610213 L62.4842456,26.9610213 L62.4842456,24.6125957 L61.9921404,24.6125957 C61.8275088,24.5577872 60.2408421,24.5029787 60.2408421,22.591234 L60.2408421,19.0405957 L62.9220702,18.6033191 L67.0802105,23.4651915 C67.354,23.7380426 67.2991228,23.9018723 67.2442456,23.9566809 C67.1350877,24.3391489 66.642386,24.6125957 66.4783509,24.6125957 L66.0405263,24.6125957 L66.0405263,26.9610213 L82.7279649,26.9610213 L82.7279649,24.6125957 L82.2907368,24.5577872 C82.2907368,24.5577872 81.907193,24.5029787 81.4699649,24.2843404 C81.0870175,24.1205106 81.0321404,23.6290213 81.2510526,22.9188936 C81.7437544,21.5534468 82.0718246,20.7337021 82.5096491,19.8597447 L90.4972632,19.8597447 C90.8259298,20.4608511 91.5369474,21.9901277 91.6467018,23.4651915 C91.7009825,23.9018723 91.5918246,24.1753191 91.4277895,24.3939574 C91.2637544,24.6125957 90.9899649,24.6125957 90.9350877,24.6125957 L90.4429825,24.6125957 L90.4429825,26.9610213 L101.823439,26.9610213 L101.823439,24.721617 L101.440491,24.6668085 L101.440491,24.6668085 Z" id="Fill-5" fill="#FFFFFE" mask="url(#mask-2)"></path>
                    </g>
                    <path d="M67.1049272,12.4663663 C65.6314997,13.896835 62.0529298,14.5568667 60.3683569,14.6120693 L60.3683569,9.44042113 C60.8950728,9.38521849 61.8423582,9.38521849 62.6312845,9.38521849 L62.7368572,9.38521849 C63.63193,9.38521849 66.3682134,9.33061587 67.3154988,10.375866 C67.5788568,10.5954766 67.6838557,10.9260924 67.6838557,11.2561083 C67.6838557,11.6413268 67.4732841,12.0811479 67.1049272,12.4663663 Z M62.7368572,9 L62.6312845,9 C61.6317866,9 60.4211432,9.05520265 60,9.1104053 L60,14.9972878 C61.7367855,15.0518904 65.7364986,14.2820535 67.3154988,12.6865769 C67.7894284,12.2461558 68,11.751132 68,11.2561083 C68,10.8156871 67.8944273,10.4310687 67.5788568,10.1004528 C66.4732124,9 63.7891415,9 62.7368572,9 L62.7368572,9 Z" id="Fill-7" fill="#FFFFFE"></path>
                    <path d="M104,28 C104.571651,28 105,27.5555556 105,26.9624242 C105,26.4444444 104.571651,26 104,26 C103.5,26 103,26.4444444 103,26.9624242 C103,27.5555556 103.5,28 104,28 Z" id="Stroke-8"></path>
                    <path d="M104.181368,26.1109091 L104.181368,26.4442424 L104.636274,26.4442424 C104.727453,26.4442424 104.817641,26.3890909 104.817641,26.2775758 C104.817641,26.1109091 104.727453,26.1109091 104.545094,26.1109091 L104.181368,26.1109091 Z M104,26 L104.545094,26 C104.817641,26 105,26 105,26.2224242 C105,26.3890909 105,26.3890909 104.817641,26.5 C105,26.5557576 105,26.5557576 105,26.7224242 C105,26.8890909 105,26.8890909 105,26.9448485 L105,27 L104.817641,27 C104.817641,26.9448485 104.817641,26.8890909 104.817641,26.8333333 C104.817641,26.7224242 104.908821,26.5557576 104.636274,26.5557576 L104.181368,26.5557576 L104.181368,27 L104,27 L104,26 L104,26 Z" id="Fill-10" fill="#FFFFFF"></path>
                </g>
            </g>
        </g>
    </g>
</svg>